<svg id="Capa_1" data-name="Capa 1" xmlns="http://www.w3.org/2000/svg" viewBox="0 0 878.86 624.97"><defs><style>.cls-1,.cls-10,.cls-11,.cls-9{fill:none;}.cls-1,.cls-2,.cls-3,.cls-4,.cls-5,.cls-6,.cls-7{stroke:#1d1d1b;}.cls-1,.cls-10,.cls-4,.cls-5,.cls-6,.cls-7{stroke-miterlimit:10;}.cls-2,.cls-7{fill:#f0eae0;}.cls-11,.cls-2,.cls-3{stroke-linecap:round;stroke-linejoin:round;}.cls-3,.cls-6{fill:#f7e1b1;}.cls-4{fill:#fff;}.cls-5,.cls-8{fill:#1d1d1b;}.cls-8{font-size:12px;font-family:Tanker-Regular, Tanker;}.cls-10,.cls-11{stroke:#1e1e1c;}</style></defs><path class="cls-1" d="M146.16,289.06h78.41a0,0,0,0,1,0,0v78.41a0,0,0,0,1,0,0h0a78.41,78.41,0,0,1-78.41-78.41v0A0,0,0,0,1,146.16,289.06Z" transform="translate(513.62 142.89) rotate(90)"/><rect class="cls-1" x="146.16" y="367.46" width="78.41" height="78.41"/><rect class="cls-1" x="224.57" y="289.06" width="78.41" height="78.41"/><rect class="cls-1" x="302.97" y="289.06" width="78.41" height="78.41"/><rect class="cls-1" x="381.38" y="289.06" width="78.41" height="78.41"/><rect class="cls-1" x="459.79" y="289.06" width="78.41" height="78.41"/><rect class="cls-1" x="538.19" y="289.06" width="78.41" height="78.41"/><rect class="cls-1" x="616.6" y="289.06" width="78.41" height="78.41"/><rect class="cls-1" x="695" y="289.06" width="78.41" height="78.41"/><rect class="cls-1" x="773.41" y="289.06" width="78.41" height="78.41"/><rect class="cls-1" x="851.81" y="289.06" width="78.41" height="78.41"/><circle class="cls-2" cx="185.36" cy="511.38" r="76.69"/><circle class="cls-3" cx="185.36" cy="511.38" r="65.51"/><path class="cls-4" d="M223.87,431.42a14.46,14.46,0,1,0-18,20.27h0a14,14,0,0,0,5.19,1,14.4,14.4,0,0,0,6-1.28h0a.45.45,0,0,1,.13-.06h0a14.47,14.47,0,0,0,6.67-19.9ZM211.1,446.78a8.57,8.57,0,1,1,8.58-8.57A8.57,8.57,0,0,1,211.1,446.78Z"/><path class="cls-4" d="M211.1,429.65a8.57,8.57,0,1,0,8.58,8.56A8.56,8.56,0,0,0,211.1,429.65Zm0,13.24a4.68,4.68,0,1,1,4.68-4.68A4.67,4.67,0,0,1,211.1,442.89Z"/><path class="cls-5" d="M215.78,438.21a4.68,4.68,0,1,1-4.68-4.67A4.67,4.67,0,0,1,215.78,438.21Z"/><path class="cls-4" d="M206,451.69h0"/><line class="cls-4" x1="198.35" y1="480.99" x2="195.76" y2="482.23"/><path class="cls-4" d="M226.87,493.11v8.31a20.48,20.48,0,0,1-20.48,20.49H168.77a20.49,20.49,0,0,1-20.49-20.49V497l-28-10.24a3.1,3.1,0,0,1-2-2.9,2.85,2.85,0,0,1,2.84-2.85h77.29l8.78-4.2A7,7,0,0,0,208.6,465a.48.48,0,0,1-.11-.09c-7.7-6-3.42-12.91-2.59-13.2h0a14,14,0,0,0,5.19,1,14.4,14.4,0,0,0,6-1.28c-1.1.77-5.57,7.72,1.84,13.51,6.28,4.91,3.1,12.33,2,13.87a3,3,0,0,0-.49,2.83,3,3,0,0,0,1.2,1.48c.19.12.36.26.54.39h0A12.1,12.1,0,0,1,226.87,493.11Z"/><line class="cls-4" x1="148.28" y1="496.98" x2="148.28" y2="488.79"/><line class="cls-4" x1="136.77" y1="483.84" x2="118.22" y2="483.84"/><line class="cls-4" x1="182.44" y1="521.91" x2="182.44" y2="532.7"/><line class="cls-4" x1="190.44" y1="521.91" x2="190.44" y2="532.7"/><path class="cls-4" d="M227.8,432.27h0a2.7,2.7,0,0,1,.4,1.43v2.74"/><path class="cls-6" d="M238.14,439.32a1.3,1.3,0,0,1-.37.92,1.26,1.26,0,0,1-.91.38h-2.48s-2.06,3.14-4.12,3.14-5.17-.38-6.65,1.71a14.49,14.49,0,0,0,.26-14.05,2.72,2.72,0,0,1,1.56-.48,2.76,2.76,0,0,1,2.37,1.33l9.73,6A1.31,1.31,0,0,1,238.14,439.32Z"/><line class="cls-4" x1="234.38" y1="440.62" x2="226.72" y2="440.62"/><path class="cls-4" d="M163,481a21,21,0,0,0-5.64,16c.62,6.88,6.57,14.09,13.48,14.09h31.66"/><line class="cls-4" x1="227.8" y1="432.27" x2="227.8" y2="436.45"/><circle class="cls-7" cx="211.11" cy="384.09" r="8.5"/><text class="cls-8" transform="translate(209.4 388.59)">1</text><circle class="cls-7" cx="211.11" cy="306.76" r="8.5"/><text class="cls-8" transform="translate(208.57 311.26)">2</text><circle class="cls-7" cx="288.32" cy="306.76" r="8.5"/><text class="cls-8" transform="translate(285.7 311.26)">3</text><circle class="cls-7" cx="367.31" cy="306.76" r="8.5"/><text class="cls-8" transform="translate(364.52 311.26)">4</text><circle class="cls-7" cx="445.55" cy="306.76" r="8.5"/><text class="cls-8" transform="translate(442.88 311.26)">5</text><circle class="cls-7" cx="523.79" cy="306.76" r="8.5"/><text class="cls-8" transform="translate(521.05 311.26)">6</text><circle class="cls-7" cx="602.02" cy="306.76" r="8.5"/><text class="cls-8" transform="translate(599.69 311.26)">7</text><circle class="cls-7" cx="680.26" cy="306.76" r="8.5"/><text class="cls-8" transform="translate(677.53 311.26)">8</text><circle class="cls-7" cx="758.49" cy="306.76" r="8.5"/><text class="cls-8" transform="translate(755.76 311.26)">9</text><circle class="cls-7" cx="836.73" cy="306.76" r="8.5"/><text class="cls-8" transform="translate(832.24 311.26)">10</text><path class="cls-9" d="M121.06,97.8c-14.81,4.37-20.42,10-24.78,24.79a3,3,0,0,1-5.73,0c-4.36-14.81-10-20.42-24.78-24.79a3,3,0,0,1,0-5.72c14.8-4.36,20.42-10,24.78-24.79a3,3,0,0,1,5.73,0c4.36,14.81,10,20.43,24.78,24.79A3,3,0,0,1,121.06,97.8Z"/><path class="cls-10" d="M121.06,97.8c-14.81,4.37-20.42,10-24.78,24.79a3,3,0,0,1-5.73,0c-4.36-14.81-10-20.42-24.78-24.79a3,3,0,0,1,0-5.72c14.8-4.36,20.42-10,24.78-24.79a3,3,0,0,1,5.73,0c4.36,14.81,10,20.43,24.78,24.79A3,3,0,0,1,121.06,97.8Z"/><path class="cls-9" d="M107.79,436.59C93,441,87.37,446.56,83,461.37a3,3,0,0,1-5.72,0c-4.37-14.81-10-20.42-24.79-24.78a3,3,0,0,1,0-5.73c14.81-4.36,20.42-10,24.79-24.78a3,3,0,0,1,5.72,0c4.37,14.8,10,20.42,24.79,24.78A3,3,0,0,1,107.79,436.59Z"/><path class="cls-10" d="M107.79,436.59C93,441,87.37,446.56,83,461.37a3,3,0,0,1-5.72,0c-4.37-14.81-10-20.42-24.79-24.78a3,3,0,0,1,0-5.73c14.81-4.36,20.42-10,24.79-24.78a3,3,0,0,1,5.72,0c4.37,14.8,10,20.42,24.79,24.78A3,3,0,0,1,107.79,436.59Z"/><path class="cls-9" d="M824.45,58.24C809.64,62.6,804,68.22,799.67,83a3,3,0,0,1-5.73,0c-4.36-14.8-10-20.42-24.78-24.78a3,3,0,0,1,0-5.73c14.8-4.36,20.42-10,24.78-24.78a3,3,0,0,1,5.73,0c4.36,14.81,10,20.42,24.78,24.78A3,3,0,0,1,824.45,58.24Z"/><path class="cls-10" d="M824.45,58.24C809.64,62.6,804,68.22,799.67,83a3,3,0,0,1-5.73,0c-4.36-14.8-10-20.42-24.78-24.78a3,3,0,0,1,0-5.73c14.8-4.36,20.42-10,24.78-24.78a3,3,0,0,1,5.73,0c4.36,14.81,10,20.42,24.78,24.78A3,3,0,0,1,824.45,58.24Z"/><path class="cls-9" d="M477.55,194.47c-9.51,2.81-13.12,6.42-15.92,15.93a1.91,1.91,0,0,1-3.68,0c-2.81-9.51-6.42-13.12-15.93-15.93a1.91,1.91,0,0,1,0-3.68c9.51-2.8,13.12-6.41,15.93-15.92a1.91,1.91,0,0,1,3.68,0c2.8,9.51,6.41,13.12,15.92,15.92A1.91,1.91,0,0,1,477.55,194.47Z"/><path class="cls-10" d="M477.55,194.47c-9.51,2.81-13.12,6.42-15.92,15.93a1.91,1.91,0,0,1-3.68,0c-2.81-9.51-6.42-13.12-15.93-15.93a1.91,1.91,0,0,1,0-3.68c9.51-2.8,13.12-6.41,15.93-15.92a1.91,1.91,0,0,1,3.68,0c2.8,9.51,6.41,13.12,15.92,15.92A1.91,1.91,0,0,1,477.55,194.47Z"/><path class="cls-9" d="M783.1,106.28c-8.62,2.55-11.89,5.82-14.43,14.44a1.74,1.74,0,0,1-3.34,0c-2.54-8.62-5.81-11.89-14.44-14.44a1.73,1.73,0,0,1,0-3.33c8.63-2.54,11.9-5.81,14.44-14.44a1.74,1.74,0,0,1,3.34,0c2.54,8.63,5.81,11.9,14.43,14.44A1.73,1.73,0,0,1,783.1,106.28Z"/><path class="cls-10" d="M783.1,106.28c-8.62,2.55-11.89,5.82-14.43,14.44a1.74,1.74,0,0,1-3.34,0c-2.54-8.62-5.81-11.89-14.44-14.44a1.73,1.73,0,0,1,0-3.33c8.63-2.54,11.9-5.81,14.44-14.44a1.74,1.74,0,0,1,3.34,0c2.54,8.63,5.81,11.9,14.43,14.44A1.73,1.73,0,0,1,783.1,106.28Z"/><path class="cls-9" d="M515.09,85.86c-8.62,2.54-11.89,5.81-14.43,14.43a1.74,1.74,0,0,1-3.34,0c-2.54-8.62-5.81-11.89-14.44-14.43a1.74,1.74,0,0,1,0-3.34c8.63-2.54,11.9-5.81,14.44-14.44a1.74,1.74,0,0,1,3.34,0c2.54,8.63,5.81,11.9,14.43,14.44A1.74,1.74,0,0,1,515.09,85.86Z"/><path class="cls-10" d="M515.09,85.86c-8.62,2.54-11.89,5.81-14.43,14.43a1.74,1.74,0,0,1-3.34,0c-2.54-8.62-5.81-11.89-14.44-14.43a1.74,1.74,0,0,1,0-3.34c8.63-2.54,11.9-5.81,14.44-14.44a1.74,1.74,0,0,1,3.34,0c2.54,8.63,5.81,11.9,14.43,14.44A1.74,1.74,0,0,1,515.09,85.86Z"/><path class="cls-9" d="M361.66,450c-14.81,4.36-20.42,10-24.79,24.78a3,3,0,0,1-5.72,0c-4.37-14.81-10-20.42-24.79-24.78a3,3,0,0,1,0-5.73c14.81-4.36,20.42-10,24.79-24.78a3,3,0,0,1,5.72,0c4.37,14.8,10,20.42,24.79,24.78A3,3,0,0,1,361.66,450Z"/><path class="cls-10" d="M361.66,450c-14.81,4.36-20.42,10-24.79,24.78a3,3,0,0,1-5.72,0c-4.37-14.81-10-20.42-24.79-24.78a3,3,0,0,1,0-5.73c14.81-4.36,20.42-10,24.79-24.78a3,3,0,0,1,5.72,0c4.37,14.8,10,20.42,24.79,24.78A3,3,0,0,1,361.66,450Z"/><path class="cls-9" d="M140.69,126.7c-8.69,2.57-12,5.86-14.55,14.55a1.75,1.75,0,0,1-3.36,0c-2.56-8.69-5.86-12-14.55-14.55a1.75,1.75,0,0,1,0-3.36c8.69-2.56,12-5.85,14.55-14.55a1.75,1.75,0,0,1,3.36,0c2.56,8.7,5.86,12,14.55,14.55A1.75,1.75,0,0,1,140.69,126.7Z"/><path class="cls-10" d="M140.69,126.7c-8.69,2.57-12,5.86-14.55,14.55a1.75,1.75,0,0,1-3.36,0c-2.56-8.69-5.86-12-14.55-14.55a1.75,1.75,0,0,1,0-3.36c8.69-2.56,12-5.85,14.55-14.55a1.75,1.75,0,0,1,3.36,0c2.56,8.7,5.86,12,14.55,14.55A1.75,1.75,0,0,1,140.69,126.7Z"/><path class="cls-9" d="M818.09,431.33c-8.69,2.56-12,5.86-14.55,14.55a1.75,1.75,0,0,1-3.36,0c-2.56-8.69-5.86-12-14.55-14.55a1.75,1.75,0,0,1,0-3.36c8.69-2.56,12-5.86,14.55-14.55a1.75,1.75,0,0,1,3.36,0c2.56,8.69,5.86,12,14.55,14.55A1.75,1.75,0,0,1,818.09,431.33Z"/><path class="cls-10" d="M818.09,431.33c-8.69,2.56-12,5.86-14.55,14.55a1.75,1.75,0,0,1-3.36,0c-2.56-8.69-5.86-12-14.55-14.55a1.75,1.75,0,0,1,0-3.36c8.69-2.56,12-5.86,14.55-14.55a1.75,1.75,0,0,1,3.36,0c2.56,8.69,5.86,12,14.55,14.55A1.75,1.75,0,0,1,818.09,431.33Z"/><path class="cls-9" d="M798,483.27c-11.76,3.46-16.22,7.92-19.68,19.68a2.37,2.37,0,0,1-4.55,0c-3.47-11.76-7.93-16.22-19.69-19.68a2.37,2.37,0,0,1,0-4.55c11.76-3.47,16.22-7.92,19.69-19.68a2.37,2.37,0,0,1,4.55,0c3.46,11.76,7.92,16.21,19.68,19.68A2.37,2.37,0,0,1,798,483.27Z"/><path class="cls-10" d="M798,483.27c-11.76,3.46-16.22,7.92-19.68,19.68a2.37,2.37,0,0,1-4.55,0c-3.47-11.76-7.93-16.22-19.69-19.68a2.37,2.37,0,0,1,0-4.55c11.76-3.47,16.22-7.92,19.69-19.68a2.37,2.37,0,0,1,4.55,0c3.46,11.76,7.92,16.21,19.68,19.68A2.37,2.37,0,0,1,798,483.27Z"/><path class="cls-9" d="M557.11,56.11c-11.76,3.47-16.22,7.92-19.68,19.68a2.37,2.37,0,0,1-4.55,0C529.41,64,525,59.58,513.2,56.11a2.37,2.37,0,0,1,0-4.55c11.76-3.46,16.21-7.92,19.68-19.68a2.37,2.37,0,0,1,4.55,0c3.46,11.76,7.92,16.22,19.68,19.68A2.37,2.37,0,0,1,557.11,56.11Z"/><path class="cls-10" d="M557.11,56.11c-11.76,3.47-16.22,7.92-19.68,19.68a2.37,2.37,0,0,1-4.55,0C529.41,64,525,59.58,513.2,56.11a2.37,2.37,0,0,1,0-4.55c11.76-3.46,16.21-7.92,19.68-19.68a2.37,2.37,0,0,1,4.55,0c3.46,11.76,7.92,16.22,19.68,19.68A2.37,2.37,0,0,1,557.11,56.11Z"/><path class="cls-9" d="M160.45,279.62c-11.76,3.47-16.22,7.93-19.68,19.69a2.37,2.37,0,0,1-4.55,0c-3.47-11.76-7.92-16.22-19.68-19.69a2.36,2.36,0,0,1,0-4.54c11.76-3.47,16.21-7.93,19.68-19.69a2.37,2.37,0,0,1,4.55,0c3.46,11.76,7.92,16.22,19.68,19.69A2.36,2.36,0,0,1,160.45,279.62Z"/><path class="cls-10" d="M160.45,279.62c-11.76,3.47-16.22,7.93-19.68,19.69a2.37,2.37,0,0,1-4.55,0c-3.47-11.76-7.92-16.22-19.68-19.69a2.36,2.36,0,0,1,0-4.54c11.76-3.47,16.21-7.93,19.68-19.69a2.37,2.37,0,0,1,4.55,0c3.46,11.76,7.92,16.22,19.68,19.69A2.36,2.36,0,0,1,160.45,279.62Z"/><path class="cls-9" d="M321.57,491.52c-8.69,2.56-12,5.86-14.55,14.55a1.75,1.75,0,0,1-3.36,0c-2.56-8.69-5.85-12-14.55-14.55a1.75,1.75,0,0,1,0-3.36c8.7-2.56,12-5.86,14.55-14.55a1.75,1.75,0,0,1,3.36,0c2.57,8.69,5.86,12,14.55,14.55A1.75,1.75,0,0,1,321.57,491.52Z"/><path class="cls-10" d="M321.57,491.52c-8.69,2.56-12,5.86-14.55,14.55a1.75,1.75,0,0,1-3.36,0c-2.56-8.69-5.85-12-14.55-14.55a1.75,1.75,0,0,1,0-3.36c8.7-2.56,12-5.86,14.55-14.55a1.75,1.75,0,0,1,3.36,0c2.57,8.69,5.86,12,14.55,14.55A1.75,1.75,0,0,1,321.57,491.52Z"/><path class="cls-9" d="M470.28,516.24c-8.69,2.56-12,5.86-14.55,14.55a1.75,1.75,0,0,1-3.36,0c-2.56-8.69-5.85-12-14.55-14.55a1.75,1.75,0,0,1,0-3.36c8.7-2.56,12-5.86,14.55-14.55a1.75,1.75,0,0,1,3.36,0c2.57,8.69,5.86,12,14.55,14.55A1.75,1.75,0,0,1,470.28,516.24Z"/><path class="cls-10" d="M470.28,516.24c-8.69,2.56-12,5.86-14.55,14.55a1.75,1.75,0,0,1-3.36,0c-2.56-8.69-5.85-12-14.55-14.55a1.75,1.75,0,0,1,0-3.36c8.7-2.56,12-5.86,14.55-14.55a1.75,1.75,0,0,1,3.36,0c2.57,8.69,5.86,12,14.55,14.55A1.75,1.75,0,0,1,470.28,516.24Z"/><path class="cls-9" d="M842.84,508.77c-8.69,2.56-12,5.85-14.55,14.55a1.75,1.75,0,0,1-3.36,0c-2.56-8.7-5.86-12-14.55-14.55a1.75,1.75,0,0,1,0-3.36c8.69-2.57,12-5.86,14.55-14.55a1.75,1.75,0,0,1,3.36,0c2.56,8.69,5.86,12,14.55,14.55A1.75,1.75,0,0,1,842.84,508.77Z"/><path class="cls-10" d="M842.84,508.77c-8.69,2.56-12,5.85-14.55,14.55a1.75,1.75,0,0,1-3.36,0c-2.56-8.7-5.86-12-14.55-14.55a1.75,1.75,0,0,1,0-3.36c8.69-2.57,12-5.86,14.55-14.55a1.75,1.75,0,0,1,3.36,0c2.56,8.69,5.86,12,14.55,14.55A1.75,1.75,0,0,1,842.84,508.77Z"/><path class="cls-9" d="M196.16,246.41c-8.69,2.56-12,5.86-14.55,14.55a1.75,1.75,0,0,1-3.36,0c-2.56-8.69-5.86-12-14.55-14.55a1.75,1.75,0,0,1,0-3.36c8.69-2.56,12-5.86,14.55-14.55a1.75,1.75,0,0,1,3.36,0c2.56,8.69,5.86,12,14.55,14.55A1.75,1.75,0,0,1,196.16,246.41Z"/><path class="cls-10" d="M196.16,246.41c-8.69,2.56-12,5.86-14.55,14.55a1.75,1.75,0,0,1-3.36,0c-2.56-8.69-5.86-12-14.55-14.55a1.75,1.75,0,0,1,0-3.36c8.69-2.56,12-5.86,14.55-14.55a1.75,1.75,0,0,1,3.36,0c2.56,8.69,5.86,12,14.55,14.55A1.75,1.75,0,0,1,196.16,246.41Z"/><circle class="cls-1" cx="141.96" cy="74.25" r="13.61"/><circle class="cls-1" cx="343.72" cy="505.7" r="8.96"/><circle class="cls-1" cx="796.8" cy="583.43" r="8.96"/><circle class="cls-1" cx="478.94" cy="552.38" r="8.96"/><circle class="cls-1" cx="758.49" cy="565.97" r="22.2"/><circle class="cls-1" cx="509.1" cy="495.46" r="22.2"/><circle class="cls-1" cx="482.23" cy="164.52" r="8.96"/><circle class="cls-1" cx="50.33" cy="398.66" r="8.96"/><circle class="cls-1" cx="734.21" cy="65.14" r="8.96"/><circle class="cls-1" cx="482.32" cy="42.69" r="8.96"/><path class="cls-10" d="M579,466.92a43,43,0,0,0,13.94,17.45"/><path class="cls-10" d="M643.68,484.37a42.76,42.76,0,0,0,14-17.49"/><path class="cls-10" d="M585.26,422.57a42.85,42.85,0,0,1,66.06,0"/><path class="cls-10" d="M581.72,427.53c-.65,1.08-1.28,2.2-1.83,3.34"/><path class="cls-10" d="M656.73,430.9a36.33,36.33,0,0,0-1.87-3.41"/><circle class="cls-10" cx="618.31" cy="449.86" r="7.61"/><line class="cls-10" x1="609.23" y1="465.79" x2="618.31" y2="457.46"/><line class="cls-10" x1="627.38" y1="465.79" x2="618.31" y2="457.46"/><rect class="cls-10" x="575.4" y="430.52" width="13.18" height="37.12" rx="5.81"/><line class="cls-10" x1="581.99" y1="430.52" x2="581.99" y2="467.64"/><rect class="cls-10" x="576.76" y="423.84" width="17.03" height="6" rx="2.65" transform="translate(473.25 -288.84) rotate(45)"/><rect class="cls-10" x="647.98" y="430.52" width="13.18" height="37.12" rx="5.81" transform="translate(1309.13 898.16) rotate(-180)"/><line class="cls-10" x1="654.57" y1="430.52" x2="654.57" y2="467.64"/><rect class="cls-10" x="642.76" y="423.84" width="17.03" height="6" rx="2.65" transform="translate(1413.62 268.14) rotate(135)"/><rect class="cls-10" x="590.13" y="484.35" width="56.35" height="6.43" rx="2.83"/><rect class="cls-10" x="596.34" y="490.78" width="44.03" height="6.32" rx="2.79"/><path class="cls-10" d="M654.39,594.76c-2.29-5.33-20.45-49.27-17.28-97.66H599.5c3.16,48.32-14.93,92.21-17.27,97.64"/><path class="cls-10" d="M652.4,594.59H584.05c-11.84,0-12.43,18.15-12.43,18.15h93.2S664.24,594.59,652.4,594.59Z"/><rect class="cls-10" x="558.93" y="612.74" width="118.75" height="33.1"/><path class="cls-11" d="M657.32,113.23c-18.64,0-32,7.36-40.72,25.77-8.75-18.41-22.09-25.77-40.73-25.77s-40.72,19.33-40.72,51.54,27.61,54.75,54.76,69.48C616,248.39,616.59,254,616.6,254.46c0-.42.6-6.07,26.69-20.21C670.43,219.52,698,197,698,164.77S676,113.23,657.32,113.23Z"/><line class="cls-11" x1="609.64" y1="138.99" x2="623.51" y2="138.99"/><circle class="cls-11" cx="616.57" cy="171.98" r="9.94"/><path class="cls-11" d="M567.09,135v61.64a8.79,8.79,0,0,1-8.78-8.78V143.79A8.79,8.79,0,0,1,567.09,135Z"/><path class="cls-11" d="M575.88,143.79v44.08a8.78,8.78,0,0,1-8.79,8.78V135a8.79,8.79,0,0,1,8.79,8.78Z"/><rect class="cls-11" x="562.76" y="123.35" width="9.97" height="7.06" rx="2.17" transform="translate(256.01 -364.29) rotate(45)"/><circle class="cls-11" cx="613.86" cy="168.49" r="3.49"/><path class="cls-11" d="M666.1,135v61.64a8.78,8.78,0,0,1-8.78-8.78V143.79A8.79,8.79,0,0,1,666.1,135Z"/><path class="cls-11" d="M674.88,143.79v44.08a8.78,8.78,0,0,1-8.78,8.78V135A8.78,8.78,0,0,1,674.88,143.79Z"/><rect class="cls-11" x="660.46" y="123.35" width="9.97" height="7.06" rx="2.17" transform="translate(1225.71 -253.94) rotate(135)"/><polyline class="cls-10" points="783.79 205.87 809.51 205.87 834.43 205.87"/><polyline class="cls-10" points="836.58 223.61 833.38 223.61 827.99 223.61 822.6 223.61 817.2 223.61 811.81 223.61 806.41 223.61 801.02 223.61 795.62 223.61 790.23 223.61 784.84 223.61 781.64 223.61"/><polyline class="cls-10" points="783.79 205.87 809.51 205.87 834.43 205.87"/><path class="cls-10" d="M777.49,201.41a45.11,45.11,0,0,1,63.87-.18"/><polyline class="cls-10" points="836.58 223.61 833.38 223.61 827.99 223.61 822.6 223.61 817.2 223.61 811.81 223.61 806.41 223.61 801.02 223.61 795.62 223.61 790.23 223.61 784.84 223.61 781.64 223.61"/><path class="cls-10" d="M773.65,226.45c.34,11,2.7,18.71,5.8,24.08a27.72,27.72,0,0,0,5.39,6.8,23.42,23.42,0,0,0,5.39,3.71,18.6,18.6,0,0,0,6.5,2H821.5a18.68,18.68,0,0,0,6.49-2,23.63,23.63,0,0,0,5.39-3.71,27.53,27.53,0,0,0,5.39-6.8c3.11-5.38,5.47-13.08,5.81-24.09"/><rect class="cls-10" x="796.95" y="263.01" width="24.33" height="6.62"/><polygon class="cls-10" points="821.27 269.64 809.11 269.64 809.11 269.64 796.95 269.64 791.56 283.72 809.11 283.72 826.66 283.72 821.27 269.64"/><path class="cls-10" d="M827.73,289.06H790.49a2.68,2.68,0,0,1-2.67-2.67h0a2.67,2.67,0,0,1,2.67-2.67h37.23a2.67,2.67,0,0,1,2.68,2.67h0A2.68,2.68,0,0,1,827.73,289.06Z"/><circle class="cls-10" cx="773.6" cy="213.63" r="12.82"/><circle class="cls-10" cx="773.6" cy="213.63" r="7.93"/><circle class="cls-10" cx="844.62" cy="213.63" r="12.82"/><circle class="cls-10" cx="844.62" cy="213.63" r="7.93"/><line class="cls-10" x1="813.09" y1="188.21" x2="813.09" y2="185.24"/><line class="cls-10" x1="805.94" y1="188.21" x2="805.94" y2="185.23"/><circle class="cls-10" cx="809.52" cy="180.62" r="5.85"/><line class="cls-10" x1="779.45" y1="250.53" x2="779.45" y2="225.03"/><line class="cls-10" x1="784.84" y1="257.33" x2="784.84" y2="223.61"/><line class="cls-10" x1="790.23" y1="261.04" x2="790.23" y2="223.61"/><line class="cls-10" x1="795.62" y1="262.81" x2="795.62" y2="223.61"/><line class="cls-10" x1="801.02" y1="262.81" x2="801.02" y2="223.61"/><line class="cls-10" x1="806.41" y1="262.81" x2="806.41" y2="223.61"/><line class="cls-10" x1="811.81" y1="262.81" x2="811.81" y2="223.61"/><line class="cls-10" x1="817.2" y1="262.81" x2="817.2" y2="223.61"/><line class="cls-10" x1="822.6" y1="262.81" x2="822.6" y2="223.61"/><line class="cls-10" x1="827.99" y1="261.05" x2="827.99" y2="223.61"/><line class="cls-10" x1="833.38" y1="257.34" x2="833.38" y2="223.61"/><line class="cls-10" x1="838.77" y1="250.54" x2="838.77" y2="225.03"/><circle class="cls-10" cx="793.44" cy="214.74" r="3.14"/><circle class="cls-10" cx="804.35" cy="214.74" r="3.14"/><circle class="cls-10" cx="815.38" cy="214.74" r="3.14"/><circle class="cls-10" cx="825.16" cy="214.74" r="3.14"/><circle class="cls-10" cx="809.52" cy="180.62" r="3.23"/><line class="cls-10" x1="790.23" y1="286.39" x2="827.99" y2="286.39"/><line class="cls-10" x1="794.93" y1="283.72" x2="794.93" y2="279.3"/><line class="cls-10" x1="797.97" y1="283.72" x2="797.97" y2="277.35"/><line class="cls-10" x1="801.01" y1="283.72" x2="801.01" y2="274.77"/><line class="cls-10" x1="804.06" y1="283.72" x2="804.06" y2="274.77"/><line class="cls-10" x1="807.1" y1="283.72" x2="807.1" y2="271.67"/><line class="cls-10" x1="810.14" y1="283.72" x2="810.14" y2="271.67"/><line class="cls-10" x1="813.18" y1="283.72" x2="813.18" y2="274.77"/><line class="cls-10" x1="816.22" y1="283.72" x2="816.22" y2="274.77"/><line class="cls-10" x1="819.26" y1="283.72" x2="819.26" y2="277.35"/><line class="cls-10" x1="822.3" y1="283.72" x2="822.3" y2="279.3"/><line class="cls-10" x1="796.95" y1="266.33" x2="821.28" y2="266.33"/><line class="cls-10" x1="786.42" y1="201.5" x2="834.43" y2="201.5"/><line class="cls-10" x1="223.22" y1="106.67" x2="223.22" y2="106.68"/><path class="cls-11" d="M248.15,111.32a36.44,36.44,0,0,1,18.41,26.77s25.6-37.91,56.22-37.91,42.06,10,57.22,34.34,24.47,71.38-21.45,105-78.69,13.73-96.15.86-30.89-53.51-31.18-66.95-11.59-21.32-11.59-21.32a36.65,36.65,0,0,1-8.15-6.57,23.94,23.94,0,0,1-4-26.48,22,22,0,0,1,8.8-9.59"/><path class="cls-10" d="M245.28,109.89a42.29,42.29,0,0,0-6.42-2.27"/><path class="cls-10" d="M248.62,97.14a21.52,21.52,0,0,0,2.94,5.71"/><path class="cls-11" d="M253.89,105.63a28.36,28.36,0,0,0,3,2.63A30.63,30.63,0,0,0,267,113.33l17.06,5"/><line class="cls-10" x1="251.31" y1="78.39" x2="251.3" y2="78.39"/><path class="cls-11" d="M253.76,75.67a23.07,23.07,0,0,1,4-2.94,27,27,0,0,1,17.64-3.11C285.3,71.19,307,75.33,327.78,84c28,11.73,41.09,34.77,41.09,34.77"/><path class="cls-11" d="M348.81,128.22s-25.68-.35-48.6,36,3.68,54.11,16,49.24,15.88-20.74,12.44-30.75"/><path class="cls-11" d="M329.71,193.74l15.42-15.41S353.39,170,356.4,173"/><path class="cls-11" d="M292.75,199.74s-20.19-9.29-16.61-27.17,8.8-34.75,42.12-55c27-16.39,54.41,6,54.41,6"/><path class="cls-11" d="M276.56,182.48s-13.42-5.2-16-18.48a22.6,22.6,0,0,1-.24-6.62,46.5,46.5,0,0,1,6.25-19.29"/><path class="cls-11" d="M294.07,198.89s10.3-8.39,26.23.67"/><path class="cls-11" d="M296.18,197.59s-2.38,1.74-.24,8.1"/><path class="cls-11" d="M317.58,198.15s1.84,17-14.66,13.68"/><path class="cls-11" d="M214.25,95.93a13.65,13.65,0,1,0,26.35,5.16,13.81,13.81,0,0,0-.36-3.26,13.81,13.81,0,0,0,3.26.36,13.66,13.66,0,1,0-5.16-26.36"/><path class="cls-11" d="M232.06,74.3a10.24,10.24,0,0,0-.83-.93,10.92,10.92,0,0,0-15.45,15.45,12,12,0,0,0,.93.83"/><path class="cls-11" d="M218.4,97.8a6.57,6.57,0,1,1,9.3,9.29"/><path class="cls-11" d="M227.7,107.09a6.57,6.57,0,0,1-9.3-9.29C216.6,101.17,222.34,109,227.7,107.09Z"/><path class="cls-11" d="M249.71,85.08a6.58,6.58,0,1,1-9.3-9.3"/><path class="cls-11" d="M240.41,75.78a6.58,6.58,0,0,1,9.3,9.3C244.35,87,238.61,79.16,240.41,75.78Z"/><polygon class="cls-11" points="216.71 89.65 211.2 92.83 213.3 96.47 214.25 95.93 219.36 92.98 218.01 90.64 217.92 90.48 217.25 89.33 216.71 89.65"/><polygon class="cls-11" points="232.06 74.3 235.25 68.78 238.89 70.88 238.34 71.83 235.4 76.94 233.06 75.58 232.87 75.47 231.75 74.83 232.06 74.3"/><path class="cls-11" d="M240.6,101.09l1.76,1.76a10,10,0,0,1,2.89,6.18,10.14,10.14,0,0,1-.05,2.27l-.23,1.6a1,1,0,0,0,.78,1.08.94.94,0,0,0,.86-.27,1.15,1.15,0,0,0,.14-.17l1.17-1.88a10.26,10.26,0,0,1,1.42-1.79l1.47-1.47"/><path class="cls-11" d="M243.5,98.19l1.76,1.76a10,10,0,0,0,4,2.43,9.41,9.41,0,0,0,2.23.46,9.59,9.59,0,0,0,2.27,0l1.59-.22a1,1,0,0,1,1.09.77,1,1,0,0,1-.27.86.75.75,0,0,1-.17.14l-1.89,1.17a10.57,10.57,0,0,0-1.78,1.42l-1.47,1.47"/><path class="cls-11" d="M232.71,98.88a1.73,1.73,0,0,1-2.46-.67,1.78,1.78,0,0,1,.19-1.6"/><path class="cls-11" d="M234.55,97.79a20.92,20.92,0,0,1-1.83,1.08h0l-2.27-2.27a1.94,1.94,0,0,1,.26-.31,1.65,1.65,0,0,1,.47-.35l1-.56"/><path class="cls-11" d="M236.23,96.54c-.54.44-1.1.86-1.68,1.25l-2.4-2.4a18.86,18.86,0,0,0,1.72-1.2"/><path class="cls-11" d="M237.77,95.16a20.2,20.2,0,0,1-1.54,1.38l-2.36-2.35a18.64,18.64,0,0,0,1.56-1.37"/><path class="cls-11" d="M239.17,93.63c-.44.53-.91,1-1.4,1.53l-2.34-2.34a18.71,18.71,0,0,0,1.39-1.55"/><path class="cls-11" d="M240.43,92a20.28,20.28,0,0,1-1.26,1.67l-2.35-2.36a18.75,18.75,0,0,0,1.22-1.7"/><path class="cls-11" d="M241.53,90.14a20,20,0,0,1-1.1,1.82L238,89.57c.23-.38.45-.76.66-1.15a1.89,1.89,0,0,1,.51-.61"/><path class="cls-11" d="M239.21,87.81A1.74,1.74,0,0,1,241,87.5a1.31,1.31,0,0,1,.46.3,1.85,1.85,0,0,1,.21,2.17l-.1.17Z"/><path class="cls-10" d="M265.65,69.8a3.7,3.7,0,0,0,3.16,3.94c2.88.65,15.09,2.46,19.3,3.08a7.45,7.45,0,0,0,4.2-.54,4.28,4.28,0,0,0,2.57-2.78"/><line class="cls-11" x1="261.63" y1="162.13" x2="284.33" y2="184.83"/></svg>