<svg id="Capa_1" data-name="Capa 1" xmlns="http://www.w3.org/2000/svg" viewBox="0 0 878.86 624.97"><defs><style>.cls-1,.cls-10,.cls-11,.cls-12,.cls-4{fill:none;}.cls-1,.cls-15,.cls-16,.cls-17,.cls-2,.cls-3,.cls-4,.cls-5,.cls-6,.cls-7{stroke:#1d1d1b;}.cls-1,.cls-11,.cls-15,.cls-2,.cls-3,.cls-5,.cls-6,.cls-7{stroke-miterlimit:10;}.cls-2{fill:#68a5d4;}.cls-3{fill:#f7e1b1;}.cls-12,.cls-16,.cls-17,.cls-4{stroke-linecap:round;stroke-linejoin:round;}.cls-14,.cls-5,.cls-8{fill:#1d1d1b;}.cls-13,.cls-16,.cls-6{fill:#fff;}.cls-7{fill:#f0eae0;}.cls-8{font-size:12px;font-family:Tanker-Regular, Tanker;}.cls-9{letter-spacing:0em;}.cls-11,.cls-12{stroke:#1e1e1c;}.cls-15{fill:#b4dbd3;}.cls-17{fill:#f29bb7;}</style></defs><path class="cls-1" d="M51.36,289.06h78.41a0,0,0,0,1,0,0v78.41a0,0,0,0,1,0,0h0a78.41,78.41,0,0,1-78.41-78.41v0a0,0,0,0,1,0,0Z" transform="translate(-237.69 418.82) rotate(-90)"/><path class="cls-1" d="M51.36,53.84h78.41a0,0,0,0,1,0,0v78.41a0,0,0,0,1,0,0h0A78.41,78.41,0,0,1,51.36,53.84v0A0,0,0,0,1,51.36,53.84Z" transform="translate(183.6 2.48) rotate(90)"/><path class="cls-1" d="M365,53.84h78.41a0,0,0,0,1,0,0v78.41a0,0,0,0,1,0,0h0A78.41,78.41,0,0,1,365,53.84v0A0,0,0,0,1,365,53.84Z" transform="translate(497.23 -311.15) rotate(90)"/><path class="cls-1" d="M208.17,53.84h78.41a0,0,0,0,1,0,0v78.41a0,0,0,0,1,0,0h0a78.41,78.41,0,0,1-78.41-78.41v0a0,0,0,0,1,0,0Z" transform="translate(494.75 186.08) rotate(180)"/><path class="cls-1" d="M208.17,445.87h78.41a0,0,0,0,1,0,0v78.41a0,0,0,0,1,0,0h0a78.41,78.41,0,0,1-78.41-78.41v0A0,0,0,0,1,208.17,445.87Z"/><path class="cls-1" d="M521.8,445.87H600.2a0,0,0,0,1,0,0v78.41a0,0,0,0,1,0,0h0a78.41,78.41,0,0,1-78.41-78.41v0A0,0,0,0,1,521.8,445.87Z"/><path class="cls-1" d="M365,445.87h78.41a0,0,0,0,1,0,0v78.41a0,0,0,0,1,0,0h0A78.41,78.41,0,0,1,365,445.87v0A0,0,0,0,1,365,445.87Z" transform="translate(-80.88 889.26) rotate(-90)"/><rect class="cls-1" x="-27.05" y="289.06" width="78.41" height="78.41"/><rect class="cls-1" x="51.36" y="132.24" width="78.41" height="78.41"/><rect class="cls-1" x="51.36" y="210.65" width="78.41" height="78.41"/><rect class="cls-1" x="129.77" y="53.84" width="78.41" height="78.41"/><path class="cls-1" d="M521.8,53.84H600.2a0,0,0,0,1,0,0v78.41a0,0,0,0,1,0,0h0A78.41,78.41,0,0,1,521.8,53.84v0A0,0,0,0,1,521.8,53.84Z" transform="translate(1122 186.08) rotate(-180)"/><rect class="cls-1" x="443.39" y="53.84" width="78.41" height="78.41"/><rect class="cls-1" x="208.17" y="289.06" width="78.41" height="78.41"/><rect class="cls-1" x="208.17" y="367.46" width="78.41" height="78.41"/><rect class="cls-1" x="364.98" y="367.46" width="78.41" height="78.41"/><rect class="cls-1" x="364.98" y="289.06" width="78.41" height="78.41"/><rect class="cls-1" x="364.98" y="210.65" width="78.41" height="78.41"/><rect class="cls-1" x="286.58" y="445.87" width="78.41" height="78.41"/><rect class="cls-1" x="600.2" y="445.87" width="78.41" height="78.41"/><rect class="cls-1" x="678.61" y="445.87" width="78.41" height="78.41"/><rect class="cls-1" x="757.01" y="445.87" width="78.41" height="78.41"/><rect class="cls-1" x="835.42" y="445.87" width="78.41" height="78.41"/><rect class="cls-1" x="208.17" y="210.65" width="78.41" height="78.41"/><rect class="cls-1" x="208.17" y="132.24" width="78.41" height="78.41"/><rect class="cls-1" x="364.98" y="132.24" width="78.41" height="78.41"/><rect class="cls-1" x="521.8" y="367.46" width="78.41" height="78.41"/><rect class="cls-1" x="521.8" y="289.06" width="78.41" height="78.41"/><rect class="cls-1" x="521.8" y="210.65" width="78.41" height="78.41"/><rect class="cls-1" x="521.8" y="132.24" width="78.41" height="78.41"/><path class="cls-2" d="M398.1,260.22a1.59,1.59,0,0,0-1.45-1.52c-.61-.05-1.24-.11-1.59-.12-22.53-2-40.7-21.23-40.82-43.93.07-12,.93-34.58,1.18-46.51a68.75,68.75,0,0,0-.8-14.32c-4.74-30.13-31.95-53.29-62.43-53.72L283,99.53a8.85,8.85,0,0,0-1,0c-9.31-5.16-14.79-.8-23.3,3.59a20.92,20.92,0,0,1-12.44,2.35,6.42,6.42,0,0,0-5.39,1.82l-2,2a4.09,4.09,0,0,0,2.89,7H283v0h.29l8.93-.55a50.69,50.69,0,0,1,22.6,4.56c18.5,8.32,30.44,27.64,30.16,47.9.24,8.5.86,31.24,1.1,40a74.53,74.53,0,0,0,1.26,14,53.17,53.17,0,0,0,5.69,15c8.87,15.4,25.67,25.55,43.51,25.53h0a1.58,1.58,0,0,0,1.6-1.63Z"/><circle class="cls-3" cx="272.68" cy="106.72" r="7.01"/><path class="cls-4" d="M242.35,110.48l1.66-1.26a1.39,1.39,0,0,1,1.78.18"/><rect class="cls-5" x="268.53" y="105.01" width="8.13" height="3.5" rx="1.75"/><polyline class="cls-1" points="237.64 112.86 230.92 112.86 229.24 111.18"/><line class="cls-1" x1="230.92" y1="112.86" x2="229.28" y2="114.5"/><line class="cls-1" x1="289.88" y1="108.51" x2="289.88" y2="99.95"/><line class="cls-1" x1="295.92" y1="115.71" x2="295.92" y2="106.76"/><line class="cls-1" x1="304.24" y1="116.76" x2="304.24" y2="112.01"/><line class="cls-1" x1="300.46" y1="112.01" x2="300.46" y2="100.77"/><line class="cls-1" x1="287.42" y1="115.97" x2="287.42" y2="112.85"/><line class="cls-1" x1="313.31" y1="112.85" x2="313.31" y2="104.12"/><line class="cls-1" x1="319.92" y1="122.92" x2="319.92" y2="115.97"/><line class="cls-1" x1="328.43" y1="117.82" x2="328.43" y2="112.19"/><line class="cls-1" x1="329.56" y1="130.48" x2="329.56" y2="123.62"/><line class="cls-1" x1="341.66" y1="133.07" x2="341.66" y2="124.73"/><line class="cls-1" x1="336.16" y1="138.56" x2="336.16" y2="133.83"/><line class="cls-1" x1="342.6" y1="152.14" x2="342.6" y2="139.31"/><line class="cls-1" x1="350.92" y1="158.58" x2="350.92" y2="140.49"/><line class="cls-1" x1="348.41" y1="226.38" x2="348.41" y2="181.2"/><line class="cls-1" x1="352.81" y1="164.26" x2="352.81" y2="178.81"/><line class="cls-1" x1="348.41" y1="160.1" x2="348.41" y2="167.38"/><line class="cls-1" x1="352.05" y1="208.29" x2="352.05" y2="191.85"/><line class="cls-1" x1="360.55" y1="242.11" x2="360.55" y2="236.86"/><line class="cls-1" x1="364.71" y1="250.99" x2="364.71" y2="247.97"/><line class="cls-1" x1="372.46" y1="253.62" x2="372.46" y2="249.92"/><line class="cls-1" x1="376.99" y1="258.55" x2="376.99" y2="255.91"/><line class="cls-1" x1="385.78" y1="261.44" x2="385.78" y2="258.81"/><line class="cls-1" x1="393.72" y1="260.59" x2="393.72" y2="258.43"/><line class="cls-6" x1="249.34" y1="105.62" x2="249.34" y2="110.12"/><line class="cls-6" x1="281.95" y1="99.53" x2="281.95" y2="105.01"/><line class="cls-1" x1="353.94" y1="238.71" x2="353.94" y2="229.45"/><circle class="cls-7" cx="36.11" cy="306.76" r="8.5"/><text class="cls-8" transform="translate(32.72 311.26)"><tspan class="cls-9">1</tspan><tspan x="3.36" y="0">1</tspan></text><circle class="cls-7" cx="114.34" cy="306.76" r="8.5"/><text class="cls-8" transform="translate(110.1 311.26)">12</text><circle class="cls-7" cx="114.34" cy="227.64" r="8.5"/><text class="cls-8" transform="translate(110.02 232.14)">13</text><circle class="cls-7" cx="114.34" cy="149.08" r="8.5"/><text class="cls-8" transform="translate(109.84 153.58)">14</text><circle class="cls-7" cx="114.34" cy="70.48" r="8.5"/><text class="cls-8" transform="translate(109.96 74.98)">15</text><circle class="cls-7" cx="192.96" cy="70.48" r="8.5"/><text class="cls-8" transform="translate(188.51 74.98)">16</text><circle class="cls-7" cx="252.57" cy="88.69" r="8.5"/><text class="cls-8" transform="translate(248.53 93.19)">17</text><circle class="cls-7" cx="272.68" cy="149.08" r="8.5"/><text class="cls-8" transform="translate(268.25 153.58)">18</text><circle class="cls-7" cx="272.68" cy="227.64" r="8.5"/><text class="cls-8" transform="translate(268.24 232.14)">19</text><circle class="cls-7" cx="272.68" cy="305.07" r="8.5"/><text class="cls-8" transform="translate(267.37 309.57)">20</text><circle class="cls-7" cx="272.68" cy="379.72" r="8.5"/><text class="cls-8" transform="translate(268.44 384.22)">21</text><circle class="cls-7" cx="242.53" cy="489.56" r="8.5"/><text class="cls-8" transform="translate(237.46 494.06)">22</text><circle class="cls-7" cx="349.31" cy="461.57" r="8.5"/><text class="cls-8" transform="translate(344.16 466.07)">23</text><circle class="cls-7" cx="409.56" cy="489.56" r="8.5"/><text class="cls-8" transform="translate(404.24 494.06)">24</text><circle class="cls-7" cx="429.12" cy="380.86" r="8.5"/><text class="cls-8" transform="translate(423.91 385.36)">25</text><circle class="cls-7" cx="429.12" cy="305.07" r="8.5"/><text class="cls-8" transform="translate(423.85 309.57)">26</text><circle class="cls-7" cx="429.12" cy="226.38" r="8.5"/><text class="cls-8" transform="translate(424.25 230.89)">27</text><circle class="cls-7" cx="429.12" cy="147.7" r="8.5"/><text class="cls-8" transform="translate(423.86 152.2)">28</text><circle class="cls-7" cx="399.64" cy="89.82" r="8.5"/><text class="cls-8" transform="translate(394.37 94.32)">29</text><circle class="cls-7" cx="507.27" cy="69.18" r="8.5"/><text class="cls-8" transform="translate(501.87 73.68)">30</text><circle class="cls-7" cx="566.96" cy="88.69" r="8.5"/><text class="cls-8" transform="translate(562.63 93.19)">31</text><circle class="cls-7" cx="586.02" cy="147.7" r="8.5"/><text class="cls-8" transform="translate(580.87 152.2)">32</text><circle class="cls-7" cx="586.02" cy="226.38" r="8.5"/><text class="cls-8" transform="translate(580.79 230.89)">33</text><circle class="cls-7" cx="586.02" cy="305.07" r="8.5"/><text class="cls-8" transform="translate(580.61 309.57)">34</text><circle class="cls-7" cx="586.02" cy="380.86" r="8.5"/><text class="cls-8" transform="translate(580.67 385.36)">36</text><circle class="cls-7" cx="557.11" cy="489.56" r="8.5"/><text class="cls-8" transform="translate(552.16 494.06)">37</text><circle class="cls-7" cx="663.97" cy="459.73" r="8.5"/><text class="cls-8" transform="translate(658.63 464.23)">38</text><circle class="cls-7" cx="742.73" cy="459.73" r="8.5"/><text class="cls-8" transform="translate(737.38 464.23)">39</text><circle class="cls-7" cx="820.94" cy="459.73" r="8.5"/><text class="cls-8" transform="translate(815.36 464.23)">40</text><path class="cls-10" d="M757.51,322.83c-14.8,4.36-20.42,10-24.78,24.78a3,3,0,0,1-5.73,0c-4.36-14.81-10-20.42-24.78-24.78a3,3,0,0,1,0-5.73c14.81-4.36,20.42-10,24.78-24.79a3,3,0,0,1,5.73,0c4.36,14.81,10,20.43,24.78,24.79A3,3,0,0,1,757.51,322.83Z"/><path class="cls-11" d="M757.51,322.83c-14.8,4.36-20.42,10-24.78,24.78a3,3,0,0,1-5.73,0c-4.36-14.81-10-20.42-24.78-24.78a3,3,0,0,1,0-5.73c14.81-4.36,20.42-10,24.78-24.79a3,3,0,0,1,5.73,0c4.36,14.81,10,20.43,24.78,24.79A3,3,0,0,1,757.51,322.83Z"/><path class="cls-10" d="M180.3,371c-14.81,4.36-20.42,10-24.78,24.78a3,3,0,0,1-5.73,0c-4.36-14.81-10-20.42-24.79-24.78a3,3,0,0,1,0-5.73c14.81-4.36,20.43-10,24.79-24.79a3,3,0,0,1,5.73,0c4.36,14.81,10,20.43,24.78,24.79A3,3,0,0,1,180.3,371Z"/><path class="cls-11" d="M180.3,371c-14.81,4.36-20.42,10-24.78,24.78a3,3,0,0,1-5.73,0c-4.36-14.81-10-20.42-24.79-24.78a3,3,0,0,1,0-5.73c14.81-4.36,20.43-10,24.79-24.79a3,3,0,0,1,5.73,0c4.36,14.81,10,20.43,24.78,24.79A3,3,0,0,1,180.3,371Z"/><path class="cls-10" d="M688,156.91c-9.52,2.8-13.13,6.41-15.93,15.93a1.92,1.92,0,0,1-3.68,0c-2.81-9.52-6.41-13.13-15.93-15.93a1.91,1.91,0,0,1,0-3.68c9.52-2.81,13.12-6.41,15.93-15.93a1.91,1.91,0,0,1,3.68,0c2.8,9.52,6.41,13.12,15.93,15.93A1.91,1.91,0,0,1,688,156.91Z"/><path class="cls-11" d="M688,156.91c-9.52,2.8-13.13,6.41-15.93,15.93a1.92,1.92,0,0,1-3.68,0c-2.81-9.52-6.41-13.13-15.93-15.93a1.91,1.91,0,0,1,0-3.68c9.52-2.81,13.12-6.41,15.93-15.93a1.91,1.91,0,0,1,3.68,0c2.8,9.52,6.41,13.12,15.93,15.93A1.91,1.91,0,0,1,688,156.91Z"/><path class="cls-10" d="M343.55,53.49c-9.52,2.8-13.12,6.41-15.93,15.93a1.91,1.91,0,0,1-3.68,0c-2.8-9.52-6.41-13.13-15.93-15.93a1.91,1.91,0,0,1,0-3.68c9.52-2.8,13.13-6.41,15.93-15.93a1.91,1.91,0,0,1,3.68,0C330.43,43.4,334,47,343.55,49.81A1.91,1.91,0,0,1,343.55,53.49Z"/><path class="cls-11" d="M343.55,53.49c-9.52,2.8-13.12,6.41-15.93,15.93a1.91,1.91,0,0,1-3.68,0c-2.8-9.52-6.41-13.13-15.93-15.93a1.91,1.91,0,0,1,0-3.68c9.52-2.8,13.13-6.41,15.93-15.93a1.91,1.91,0,0,1,3.68,0C330.43,43.4,334,47,343.55,49.81A1.91,1.91,0,0,1,343.55,53.49Z"/><path class="cls-10" d="M716.31,369.76c-8.62,2.54-11.89,5.81-14.43,14.44a1.74,1.74,0,0,1-3.34,0c-2.54-8.63-5.81-11.9-14.44-14.44a1.74,1.74,0,0,1,0-3.34c8.63-2.54,11.9-5.81,14.44-14.43a1.74,1.74,0,0,1,3.34,0c2.54,8.62,5.81,11.89,14.43,14.43A1.74,1.74,0,0,1,716.31,369.76Z"/><path class="cls-11" d="M716.31,369.76c-8.62,2.54-11.89,5.81-14.43,14.44a1.74,1.74,0,0,1-3.34,0c-2.54-8.63-5.81-11.9-14.44-14.44a1.74,1.74,0,0,1,0-3.34c8.63-2.54,11.9-5.81,14.44-14.43a1.74,1.74,0,0,1,3.34,0c2.54,8.62,5.81,11.89,14.43,14.43A1.74,1.74,0,0,1,716.31,369.76Z"/><path class="cls-10" d="M821.5,298.24c-8.63,2.54-11.9,5.81-14.44,14.43a1.73,1.73,0,0,1-3.33,0c-2.54-8.62-5.81-11.89-14.44-14.43a1.74,1.74,0,0,1,0-3.34c8.63-2.54,11.9-5.81,14.44-14.44a1.73,1.73,0,0,1,3.33,0c2.54,8.63,5.81,11.9,14.44,14.44A1.74,1.74,0,0,1,821.5,298.24Z"/><path class="cls-11" d="M821.5,298.24c-8.63,2.54-11.9,5.81-14.44,14.43a1.73,1.73,0,0,1-3.33,0c-2.54-8.62-5.81-11.89-14.44-14.43a1.74,1.74,0,0,1,0-3.34c8.63-2.54,11.9-5.81,14.44-14.44a1.73,1.73,0,0,1,3.33,0c2.54,8.63,5.81,11.9,14.44,14.44A1.74,1.74,0,0,1,821.5,298.24Z"/><path class="cls-10" d="M61.14,561.81c-8.62,2.54-11.89,5.81-14.44,14.44a1.73,1.73,0,0,1-3.33,0c-2.54-8.63-5.81-11.9-14.44-14.44a1.74,1.74,0,0,1,0-3.34c8.63-2.54,11.9-5.81,14.44-14.43a1.73,1.73,0,0,1,3.33,0c2.55,8.62,5.82,11.89,14.44,14.43A1.74,1.74,0,0,1,61.14,561.81Z"/><path class="cls-11" d="M61.14,561.81c-8.62,2.54-11.89,5.81-14.44,14.44a1.73,1.73,0,0,1-3.33,0c-2.54-8.63-5.81-11.9-14.44-14.44a1.74,1.74,0,0,1,0-3.34c8.63-2.54,11.9-5.81,14.44-14.43a1.73,1.73,0,0,1,3.33,0c2.55,8.62,5.82,11.89,14.44,14.43A1.74,1.74,0,0,1,61.14,561.81Z"/><path class="cls-10" d="M306.56,561.37c-8.62,2.54-11.89,5.81-14.43,14.43a1.74,1.74,0,0,1-3.34,0c-2.54-8.62-5.81-11.89-14.44-14.43a1.74,1.74,0,0,1,0-3.34c8.63-2.54,11.9-5.81,14.44-14.44a1.74,1.74,0,0,1,3.34,0c2.54,8.63,5.81,11.9,14.43,14.44A1.74,1.74,0,0,1,306.56,561.37Z"/><path class="cls-11" d="M306.56,561.37c-8.62,2.54-11.89,5.81-14.43,14.43a1.74,1.74,0,0,1-3.34,0c-2.54-8.62-5.81-11.89-14.44-14.43a1.74,1.74,0,0,1,0-3.34c8.63-2.54,11.9-5.81,14.44-14.44a1.74,1.74,0,0,1,3.34,0c2.54,8.63,5.81,11.9,14.43,14.44A1.74,1.74,0,0,1,306.56,561.37Z"/><path class="cls-10" d="M786.49,563.68c-8.62,2.54-11.89,5.81-14.43,14.44a1.74,1.74,0,0,1-3.34,0c-2.54-8.63-5.81-11.9-14.44-14.44a1.74,1.74,0,0,1,0-3.34c8.63-2.54,11.9-5.81,14.44-14.43a1.74,1.74,0,0,1,3.34,0c2.54,8.62,5.81,11.89,14.43,14.43A1.74,1.74,0,0,1,786.49,563.68Z"/><path class="cls-11" d="M786.49,563.68c-8.62,2.54-11.89,5.81-14.43,14.44a1.74,1.74,0,0,1-3.34,0c-2.54-8.63-5.81-11.9-14.44-14.44a1.74,1.74,0,0,1,0-3.34c8.63-2.54,11.9-5.81,14.44-14.43a1.74,1.74,0,0,1,3.34,0c2.54,8.62,5.81,11.89,14.43,14.43A1.74,1.74,0,0,1,786.49,563.68Z"/><path class="cls-10" d="M86.62,408.33c-8.63,2.54-11.9,5.81-14.44,14.44a1.74,1.74,0,0,1-3.34,0c-2.54-8.63-5.81-11.9-14.44-14.44a1.73,1.73,0,0,1,0-3.33c8.63-2.55,11.9-5.82,14.44-14.44a1.74,1.74,0,0,1,3.34,0C74.72,399.18,78,402.45,86.62,405A1.73,1.73,0,0,1,86.62,408.33Z"/><path class="cls-11" d="M86.62,408.33c-8.63,2.54-11.9,5.81-14.44,14.44a1.74,1.74,0,0,1-3.34,0c-2.54-8.63-5.81-11.9-14.44-14.44a1.73,1.73,0,0,1,0-3.33c8.63-2.55,11.9-5.82,14.44-14.44a1.74,1.74,0,0,1,3.34,0C74.72,399.18,78,402.45,86.62,405A1.73,1.73,0,0,1,86.62,408.33Z"/><path class="cls-10" d="M850.51,97.31c-14.81,4.36-20.42,10-24.79,24.78a3,3,0,0,1-5.72,0c-4.36-14.81-10-20.42-24.79-24.78a3,3,0,0,1,0-5.73C810,87.22,815.64,81.6,820,66.79a3,3,0,0,1,5.72,0c4.37,14.81,10,20.43,24.79,24.79A3,3,0,0,1,850.51,97.31Z"/><path class="cls-11" d="M850.51,97.31c-14.81,4.36-20.42,10-24.79,24.78a3,3,0,0,1-5.72,0c-4.36-14.81-10-20.42-24.79-24.78a3,3,0,0,1,0-5.73C810,87.22,815.64,81.6,820,66.79a3,3,0,0,1,5.72,0c4.37,14.81,10,20.43,24.79,24.79A3,3,0,0,1,850.51,97.31Z"/><path class="cls-10" d="M565.11,569.94c-11.76,3.47-16.22,7.93-19.68,19.69a2.37,2.37,0,0,1-4.55,0c-3.47-11.76-7.92-16.22-19.68-19.69a2.36,2.36,0,0,1,0-4.54c11.76-3.47,16.21-7.93,19.68-19.69a2.37,2.37,0,0,1,4.55,0c3.46,11.76,7.92,16.22,19.68,19.69A2.36,2.36,0,0,1,565.11,569.94Z"/><path class="cls-11" d="M565.11,569.94c-11.76,3.47-16.22,7.93-19.68,19.69a2.37,2.37,0,0,1-4.55,0c-3.47-11.76-7.92-16.22-19.68-19.69a2.36,2.36,0,0,1,0-4.54c11.76-3.47,16.21-7.93,19.68-19.69a2.37,2.37,0,0,1,4.55,0c3.46,11.76,7.92,16.22,19.68,19.69A2.36,2.36,0,0,1,565.11,569.94Z"/><circle class="cls-1" cx="568.76" cy="599.12" r="8.96"/><circle class="cls-1" cx="757.01" cy="376.72" r="8.96"/><circle class="cls-1" cx="647.44" cy="117.82" r="8.96"/><circle class="cls-1" cx="161.61" cy="463.14" r="8.96"/><path class="cls-11" d="M746.2,206.78a2.81,2.81,0,0,0,2.81.8,2.93,2.93,0,0,0,2.1-2.87v-37.4h0a2.82,2.82,0,0,1,4,0h0V204.7a2.93,2.93,0,0,0,2.09,2.88,2.82,2.82,0,0,0,2.82-.8c5.07-5.42,31.17-34.07,30.15-48.23-1.14-15.69-11.91-19.28-14.75-19.28H730.8c-2.84,0-13.61,3.59-14.74,19.28C715,172.71,741.13,201.36,746.2,206.78Z"/><path class="cls-11" d="M753.1,139.27V104.5h19.84s.57,4.54-1.8,4.54c0,0,1.52,20.21,9.78,23.46a3.56,3.56,0,0,1,2.32,3.29h0a3.48,3.48,0,0,1-3.49,3.48Z"/><path class="cls-11" d="M775.39,139.27s-10.18-5.71-10.18-34.77"/><path class="cls-11" d="M765.21,139.27s-7.37-3.38-7.37-34.77"/><path class="cls-11" d="M753.1,139.27V104.5H733.25s-.56,4.54,1.8,4.54c0,0-1.52,20.21-9.78,23.46a3.56,3.56,0,0,0-2.32,3.29h0a3.48,3.48,0,0,0,3.49,3.48Z"/><path class="cls-11" d="M730.8,139.27S741,133.56,741,104.5"/><path class="cls-11" d="M741,139.27s7.37-3.38,7.37-34.77"/><rect class="cls-11" x="738.02" y="155.15" width="30.14" height="7.37" rx="3.69" transform="translate(1506.19 317.66) rotate(180)"/><path class="cls-11" d="M768.17,178.91V168.73a5.07,5.07,0,0,1,5.08-5.08h0a5.07,5.07,0,0,1,5.07,5.08v10.18"/><line class="cls-11" x1="773.25" y1="163.65" x2="773.25" y2="160.72"/><line class="cls-11" x1="776.54" y1="164.87" x2="778.61" y2="162.8"/><line class="cls-11" x1="769.95" y1="164.87" x2="767.62" y2="162.54"/><path class="cls-11" d="M727.54,178.91V168.73a5.07,5.07,0,0,1,5.08-5.08h0a5.08,5.08,0,0,1,5.08,5.08v10.18"/><line class="cls-11" x1="732.62" y1="163.65" x2="732.62" y2="160.72"/><line class="cls-11" x1="735.91" y1="164.87" x2="737.98" y2="162.8"/><line class="cls-11" x1="729.32" y1="164.87" x2="726.99" y2="162.54"/><rect class="cls-11" x="730.8" y="102.23" width="44.6" height="2.27" rx="1.13" transform="translate(1506.19 206.73) rotate(180)"/><path class="cls-11" d="M721.63,49.22s15,32,14.61,53H770c-.43-21,14.61-53,14.61-53,8.5-21-1.32-33.16-1.32-33.16H723S713.13,28.25,721.63,49.22Z"/><path class="cls-11" d="M723,16.06h60.29c10.44,0,11-16,11-16H712S712.51,16.06,723,16.06Z"/><rect class="cls-11" x="700.65" y="-29.15" width="104.74" height="29.2" transform="translate(1506.05 -29.11) rotate(180)"/><line class="cls-11" x1="764.76" y1="162.54" x2="764.76" y2="155.15"/><line class="cls-11" x1="758.93" y1="162.54" x2="758.93" y2="155.15"/><line class="cls-11" x1="747.58" y1="162.54" x2="747.58" y2="155.15"/><line class="cls-11" x1="741.75" y1="162.54" x2="741.75" y2="155.15"/><circle class="cls-11" cx="753.1" cy="210.88" r="4.89"/><line class="cls-11" x1="753.1" y1="162.52" x2="753.1" y2="155.15"/><circle class="cls-12" cx="439.11" cy="567.77" r="13.86"/><polyline class="cls-12" points="463.08 543.8 464.82 562.76 452.82 565.75"/><polyline class="cls-12" points="463.09 543.8 510.12 496.76 464.81 562.76"/><circle class="cls-12" cx="439.11" cy="567.77" r="10.03"/><circle class="cls-12" cx="439.11" cy="567.77" r="6.25"/><circle class="cls-12" cx="416.4" cy="545.06" r="10.15"/><circle class="cls-12" cx="416.4" cy="545.06" r="7.35"/><circle class="cls-12" cx="416.4" cy="545.06" r="4.58"/><polyline class="cls-12" points="463.08 543.8 444.13 542.07 441.14 554.06"/><polyline class="cls-12" points="463.09 543.8 510.12 496.76 444.13 542.08"/><path class="cls-12" d="M407,549s4.19,10.53,22.28,28.62"/><path class="cls-12" d="M426.47,546.29s.71,9.21,9,8.11"/><circle class="cls-12" cx="461.83" cy="590.49" r="10.15"/><circle class="cls-12" cx="461.83" cy="590.49" r="7.35"/><circle class="cls-12" cx="461.83" cy="590.49" r="4.58"/><path class="cls-12" d="M457.94,599.86s-10.53-4.19-28.62-22.28"/><path class="cls-12" d="M452.49,571.39c-1.1,8.32,8.11,9,8.11,9"/><path class="cls-12" d="M411.14,595.75l-4.42-4.42a35.63,35.63,0,0,1,2-3.41c.5-.76,1.08-1.61,1.77-2.51s1.2-1.56,1.9-2.38,1.3-1.49,2-2.24,1.41-1.41,2.18-2.09,1.52-1.31,2.34-1.93,1.65-1.2,2.52-1.76a30.83,30.83,0,0,1,3.49-1.92"/><path class="cls-12" d="M411.14,595.75l4.42,4.42a38.55,38.55,0,0,0,3.41-2c.76-.5,1.6-1.08,2.51-1.77.76-.57,1.56-1.2,2.37-1.9s1.5-1.31,2.25-2,1.4-1.41,2.09-2.18,1.31-1.52,1.93-2.34,1.19-1.65,1.76-2.52a35.43,35.43,0,0,0,1.92-3.49"/><path class="cls-12" d="M402,594.53h12.5a0,0,0,0,1,0,0v2.06a6.25,6.25,0,0,1-6.25,6.25h0a6.25,6.25,0,0,1-6.25-6.25v-2.06A0,0,0,0,1,402,594.53Z" transform="translate(542.89 -113.29) rotate(45)"/><polyline class="cls-12" points="408.72 587.92 413.84 593.04 418.97 598.17"/><polyline class="cls-12" points="410.49 585.41 415.99 590.9 421.48 596.4"/><polyline class="cls-12" points="412.39 583.03 418.12 588.77 423.86 594.5"/><polyline class="cls-12" points="414.43 580.79 420.26 586.62 426.1 592.46"/><polyline class="cls-12" points="416.61 578.7 422.4 584.49 428.19 590.28"/><polyline class="cls-12" points="418.95 576.77 424.53 582.35 430.12 587.94"/><polyline class="cls-12" points="421.47 575.01 426.68 580.21 431.88 585.41"/><path class="cls-12" d="M77.58,465.6a29.86,29.86,0,1,1,29.86,29.86s-16.3.57-28.2-11.2"/><path class="cls-12" d="M87.72,443.18s-24,5.6-18.69,33.43"/><line class="cls-12" x1="75.2" y1="520.64" x2="75.2" y2="520.63"/><path class="cls-12" d="M124.09,490.39c13.11,25.68-.78,41.78-.78,41.78.43,7.37,4.54,21.68,4.54,21.68s3.26,10.49,10.77,9.5,10.77-20,10.77-20c1.85-1.7,2.13.28,2.13.28a48.69,48.69,0,0,1-5.67,21.83c-5.95,11.19-18.85,24.8-18.85,24.8s-9.78,8.22-17.72,24c-6.7,13.28-4.91,36.95-4.2,44a3.6,3.6,0,0,0,2.08,2.9c-1,6-5.63,5.81-5.63,5.81s-1.46-1.28-10.35-28.21-4.29-51.31-1.31-63.07.28-20.69-2.15-27.5c-1.91-5.36-4.67-9.74-10.6-23.14"/><path class="cls-12" d="M71,510.63C62.11,487,73.42,464,73.42,464"/><path class="cls-12" d="M123.31,532.17s-24.58,27-29.33,36.56-6,15.61-6,15.61"/><path class="cls-12" d="M86.18,477.67c1,3.62,15.43,15.49,29.06,6.59,14.81-9.67,12.26-23,9.7-29.34-2-4.91-9.07-12-21.68-9.28C87.11,449.18,87,462,89.16,469.81c2.76,10,11,9.68,16.37,6.64,2.83-1.63,9-7.06,12.4-10.85,3.75-4.23,2.62-11.17-5.88-12.31S93.88,461,96.53,470.51c1.56,5.6,7.65,4,9,2.41"/><path class="cls-12" d="M106.59,457.06a11.26,11.26,0,0,0-4.93,3.88c-1.49,2.07-3.15,4.05-2.16,7.94,0,0,1.6,4.58,5.25,2.56,0,0,1.19-.8,4.81-3.48s5.69-4,5.68-6.94c0-3.69-3-4.58-5.68-4.61A7.9,7.9,0,0,0,106.59,457.06Z"/><path class="cls-12" d="M75.69,488.84s5.46,10.74,28,13.61c19.65,2.51,17,18.25,14.94,23.36s-17,17.08-19.94,22.94l-2.37,4.35s2.08-7.56-2.08-21.92-2-20.27,1.18-22.49c1.9-1.32,9.31-3.45,12.91.89s2.31,11.72,2.31,15.5c0,5.86-2.84,7.51-7.37,7.51-5.3,0-5.86-4.86-5.86-10.34,0-6.19,1.65-8.6,5.24-8.41s5.06,2.78,4.54,8.12c-.45,4.56-4.92,7.94-7.61,2.74"/><rect class="cls-12" x="100.67" y="516.93" width="3.97" height="7.72" rx="1.98"/><ellipse class="cls-12" cx="75.69" cy="514.56" rx="4.46" ry="10.59" transform="translate(-76.59 17.26) rotate(-8.66)"/><ellipse class="cls-12" cx="75.69" cy="514.56" rx="2.87" ry="6.8" transform="translate(-76.59 17.26) rotate(-8.66)"/><path class="cls-12" d="M120,544.92s-2.09,18.85,9.11,26.08c0,0-32.64,31.39-31.27,59.63,0,0-6.86-29.58,1.93-52.54s13.74-14.93,13.74-14c.62,2,1.42,16.4-10.77,24"/><path class="cls-12" d="M168.9,526.27l-17.38,17.37S150.59,526.27,168.9,526.27Z"/><line class="cls-12" x1="155.6" y1="539.57" x2="155.6" y2="531.48"/><line class="cls-12" x1="162.12" y1="533.04" x2="162.12" y2="527.25"/><path class="cls-12" d="M168.9,526.27l-17.38,17.37S168.9,544.58,168.9,526.27Z"/><line class="cls-12" x1="155.61" y1="539.54" x2="163.69" y2="539.54"/><line class="cls-12" x1="167.92" y1="533.04" x2="162.12" y2="533.04"/><path class="cls-12" d="M160.56,565.44,150,554.84S160.56,554.27,160.56,565.44Z"/><line class="cls-12" x1="152.45" y1="557.33" x2="157.32" y2="557.33"/><line class="cls-12" x1="156.43" y1="561.31" x2="159.97" y2="561.31"/><path class="cls-12" d="M160.56,565.44,150,554.84S149.39,565.44,160.56,565.44Z"/><line class="cls-12" x1="152.45" y1="557.33" x2="152.45" y2="562.2"/><line class="cls-12" x1="156.43" y1="564.85" x2="156.43" y2="561.31"/><path class="cls-12" d="M106.31,470.34a10.64,10.64,0,0,1-4.59-3.94,11.93,11.93,0,0,1-1.56-3.25h0"/><path class="cls-12" d="M106.05,457.3h0a11,11,0,0,1,3.83,3.59,10.78,10.78,0,0,1,1.94,5.39h0"/><line class="cls-12" x1="104.64" y1="522.74" x2="100.67" y2="522.74"/><line class="cls-12" x1="104.64" y1="518.92" x2="100.67" y2="518.92"/><path class="cls-3" d="M330.71,311.09a6.51,6.51,0,0,0-8.29,4l-6.36,18.16-28.15-9.85,6.36-18.17a6.5,6.5,0,0,0-12.27-4.3L169.22,623a6.5,6.5,0,1,0,12.27,4.3l4.57-13,28.15,9.85-4.56,13a6.5,6.5,0,1,0,12.27,4.3L334.7,319.37A6.5,6.5,0,0,0,330.71,311.09ZM222.87,509.15l6.55-18.69,28.15,9.86L251,519Zm23.86,22.13L240.19,550,212,540.11l6.55-18.69Zm-13-53.09,6.54-18.69,28.16,9.86L261.87,488Zm10.84-31,6.54-18.69,28.16,9.86-6.54,18.68Zm10.84-31,6.54-18.69,28.16,9.86-6.54,18.68Zm10.84-31,6.54-18.69,28.16,9.85-6.54,18.69ZM207.74,552.38l28.15,9.85-6.54,18.69-28.16-9.85Zm104-206.86-6.55,18.68-28.15-9.85,6.54-18.69ZM190.35,602l6.55-18.69,28.15,9.85-6.54,18.69Z"/><circle class="cls-13" cx="257.57" cy="369.34" r="11.55"/><path class="cls-14" d="M257.57,381.39a12,12,0,1,1,12.05-12.05A12.06,12.06,0,0,1,257.57,381.39Zm0-23.1a11.05,11.05,0,1,0,11.05,11A11.07,11.07,0,0,0,257.57,358.29Z"/><circle class="cls-14" cx="257.57" cy="369.34" r="5.83"/><circle class="cls-13" cx="310.91" cy="388.47" r="11.55"/><path class="cls-14" d="M310.91,400.51a12,12,0,1,1,12-12A12.05,12.05,0,0,1,310.91,400.51Zm0-23.09a11,11,0,1,0,11,11.05A11.06,11.06,0,0,0,310.91,377.42Z"/><circle class="cls-14" cx="310.91" cy="388.47" r="5.83"/><path class="cls-15" d="M819,573.32c-.06.11-.09.21-.14.32h0a11.94,11.94,0,0,0-2.61,1,11.14,11.14,0,0,0-5.43,12.4,52.86,52.86,0,0,1-36.53,19.39,11.13,11.13,0,0,0-14.22-3,10.4,10.4,0,0,0-2.56,2,55.37,55.37,0,0,1-13.42-4.87,11,11,0,0,0-1.39-5.57,11.12,11.12,0,0,0-12.9-5.3,56.59,56.59,0,0,1-9-12.68c-2.18-3.9-4.77-8.49-7.54-13.37a11.12,11.12,0,0,0-9.65-17.06c-3.11-5.53-6.05-10.78-8.43-15.16A40.87,40.87,0,0,1,690.35,512c.26-.12.53-.25.79-.4a11.11,11.11,0,0,0,4.36-15.1,10.76,10.76,0,0,0-1.87-2.49c1.32-4.13,2.81-8.13,4.11-12.1,2.28-7,4-13.78,3.18-20.8a31.33,31.33,0,0,0-4.43-12.76c-4.36-8-10.66-12.18-17.86-14.83a9.91,9.91,0,0,0-.82-1.89,11.11,11.11,0,0,0-17.34-2.74A112.54,112.54,0,0,1,649.36,426a40.16,40.16,0,0,1-5.67-2.15,16,16,0,0,0-2-8.37,16.21,16.21,0,0,0-16.77-8.16,45.49,45.49,0,0,1-7.31-23.24c.18-.08.36-.18.54-.28a16.17,16.17,0,0,0,6.35-22,15.38,15.38,0,0,0-1.74-2.54c4-11.83,8-22.11,3.91-33.38A16.18,16.18,0,0,0,603,304.82h0c-4.3-1.24-8.86-2.08-13.48-3.05a16,16,0,0,0-2-7.1,16.18,16.18,0,0,0-25.1-4.09,36.58,36.58,0,0,1-3-2.61,11.11,11.11,0,0,0-11-16.4h0a46.35,46.35,0,0,1-3.52-16.15,16.17,16.17,0,0,0,7-30.42A82.58,82.58,0,0,0,555,214.18h0a16.15,16.15,0,0,0-9.48-29.4v0A29.62,29.62,0,0,0,542,182a38.08,38.08,0,0,0-10-4.31,11.12,11.12,0,1,0-21.63-5,52.82,52.82,0,0,1-8.88-3,16.16,16.16,0,0,0-21.94-18.92c-.39-.62-.75-1.25-1.1-1.91l-8.32-5.75a14.52,14.52,0,0,1-2.87-2.6,8.69,8.69,0,0,0-5.37-16.11l-3.46-15.22A8.11,8.11,0,0,1,459,104a8.22,8.22,0,0,1,13.3-2.43l11,11.06A8.69,8.69,0,0,0,494,125.74a13.88,13.88,0,0,1,.66,3.85l.37,10.1a27.38,27.38,0,0,0,7.15,8.89,10.94,10.94,0,0,0,1.19,7.39,11.11,11.11,0,0,0,15.1,4.37,10.86,10.86,0,0,0,3.78-3.42c5.81,1.38,11.94,2.6,17.91,4.72a16.17,16.17,0,0,0,22.93,16.73,48.58,48.58,0,0,1,9.34,32.42,11,11,0,0,0-8.22,1,11.11,11.11,0,0,0,2.47,20.46c-2.14,5.71-4.28,11.17-5.4,17.36-.09.46-.16.9-.21,1.35l-.35.18A11.11,11.11,0,0,0,566.17,272v0c.36.58.75,1.13,1.15,1.68,5.95,8.09,14.19,11,23.18,13.14A11.11,11.11,0,0,0,607,296.62a10.85,10.85,0,0,0,4.31-4.29c7,2.65,13.78,6.75,18.7,12.43a48.84,48.84,0,0,1,9.08,15.2,12.87,12.87,0,0,0-1.41.66,11.11,11.11,0,0,0,3.9,20.75c0,.4-.1.78-.16,1.18-.17,1.18-.4,2.36-.67,3.54A11.12,11.12,0,0,0,634,366.32a80.43,80.43,0,0,0-2.95,9.79,28.15,28.15,0,0,0-.66,3.83,12.78,12.78,0,0,0-1.36.63,11.12,11.12,0,0,0,6.43,20.8,32.47,32.47,0,0,0,8.69,9.18,26.87,26.87,0,0,0,3.28,2,11.1,11.1,0,0,0,16.46,10.39,10.92,10.92,0,0,0,4.16-4c2.16.5,4.37,1,6.6,1.66a15,15,0,0,0,1.24,2.94,16.17,16.17,0,0,0,19.89,7.3c.71.61,1.37,1.25,2,1.91a47.43,47.43,0,0,1,4.06,4.62,16.15,16.15,0,0,0,9.11,22.4,47.34,47.34,0,0,1-2.51,21c-3.91,11.68-8.43,20.89-8.85,30.58a16.15,16.15,0,0,0,9.29,27h0c3.39,6.28,7.64,14.18,11.5,21.34A11.12,11.12,0,0,0,729.87,577a43.46,43.46,0,0,0,5.43,7.38,47,47,0,0,0,46.54,14.06c.82-.19,1.62-.42,2.41-.65a11.1,11.1,0,0,0,16.32-8.91A48.63,48.63,0,0,0,816.88,560a11.13,11.13,0,0,0,2.68-13.95,10.88,10.88,0,0,0-2.93-3.43h0a46.47,46.47,0,0,0-5.25-13.9,2.41,2.41,0,1,1,4.22-2.33A53.51,53.51,0,0,1,819,573.32Z"/><path class="cls-6" d="M559.43,277.26a11.12,11.12,0,0,1,0,10.72,29.61,29.61,0,0,1-2.19-2.29,49.63,49.63,0,0,1-8.83-14.11A11.13,11.13,0,0,1,559.43,277.26Z"/><path class="cls-6" d="M713.6,552.35a11.11,11.11,0,0,1-.34,11.31c-3.13-5.55-6.49-11.44-9.65-17.06A11.13,11.13,0,0,1,713.6,552.35Z"/><path class="cls-6" d="M641.7,415.5a16,16,0,0,1,2,8.37,44.54,44.54,0,0,1-18.76-16.53A16.21,16.21,0,0,1,641.7,415.5Z"/><path class="cls-6" d="M729.87,577a11.12,11.12,0,0,1-9.43-17.33c2.79,5.19,5.38,10,7.27,13.52C728.4,574.49,729.11,575.77,729.87,577Z"/><path class="cls-6" d="M500,157.83a16.11,16.11,0,0,1,1.49,11.83,47.59,47.59,0,0,1-21.94-18.92A16.17,16.17,0,0,1,500,157.83Z"/><path class="cls-6" d="M705.74,532.42c.93,1.71,2,3.71,3.19,5.93a16.15,16.15,0,0,1-9.29-27C699.35,517.86,700.91,524.59,705.74,532.42Z"/><path class="cls-6" d="M742.68,595a11,11,0,0,1,1.39,5.57,53.88,53.88,0,0,1-14.29-10.87A11.12,11.12,0,0,1,742.68,595Z"/><path class="cls-6" d="M635.49,401.37a11.12,11.12,0,0,1-6.43-20.8,12.78,12.78,0,0,1,1.36-.63A33.07,33.07,0,0,0,635.49,401.37Z"/><path class="cls-6" d="M695.5,496.51a11.11,11.11,0,0,1-4.36,15.1c-.26.15-.53.28-.79.4a46.57,46.57,0,0,1,1.5-11.86c.54-2.08,1.14-4.1,1.78-6.13A10.76,10.76,0,0,1,695.5,496.51Z"/><path class="cls-6" d="M566.17,272a11.11,11.11,0,0,1-5.45-20.84l.35-.18A31,31,0,0,0,566.17,272Z"/><path class="cls-6" d="M587.48,294.68a16,16,0,0,1,2,7.1c-3-.65-6.06-1.34-9.07-2.23a51.51,51.51,0,0,1-18-9,16.18,16.18,0,0,1,25.1,4.09Z"/><path class="cls-6" d="M624.51,361.86a16.17,16.17,0,0,1-6.35,22c-.18.1-.36.2-.54.28a41.63,41.63,0,0,1,1-10.56,123.89,123.89,0,0,1,4.17-14.22A15.38,15.38,0,0,1,624.51,361.86Z"/><path class="cls-6" d="M558.38,231.46a16.17,16.17,0,0,1-13.5,24,40.11,40.11,0,0,1,.52-8.26c1-7.4,4-15,6.43-22.16A16.09,16.09,0,0,1,558.38,231.46Z"/><path class="cls-6" d="M522.25,156.92a10.86,10.86,0,0,1-3.78,3.42,11.11,11.11,0,0,1-15.1-4.37,10.94,10.94,0,0,1-1.19-7.39C507.75,153.11,514.75,155.14,522.25,156.92Z"/><path class="cls-6" d="M668.08,418.9a10.92,10.92,0,0,1-4.16,4,11.1,11.1,0,0,1-16.46-10.39c4.71,2.5,10.27,4.05,16.21,5.41Z"/><path class="cls-6" d="M774.27,606.48a55,55,0,0,1-16.78-1,10.4,10.4,0,0,1,2.56-2A11.13,11.13,0,0,1,774.27,606.48Z"/><path class="cls-6" d="M531.05,169.31a11.1,11.1,0,0,1,1,8.42c-6.58-1.93-14-3-20.49-4.74l-1.14-.29a11.12,11.12,0,0,1,20.67-3.39Z"/><path class="cls-6" d="M677.81,431.64a9.91,9.91,0,0,1,.82,1.89c-5.66-2.11-11.9-3.27-18.16-4.63a11.11,11.11,0,0,1,17.34,2.74Z"/><path class="cls-6" d="M640.74,346.09c-1.5,6.88-4.35,13.7-6.71,20.23a11,11,0,0,1-3.37-3.75,11.12,11.12,0,0,1,10.08-16.48Z"/><path class="cls-6" d="M611.3,292.33a10.85,10.85,0,0,1-4.31,4.29,11.11,11.11,0,0,1-16.48-9.79c5.38,1.29,11,2.34,16.61,4.1C608.51,291.34,609.91,291.8,611.3,292.33Z"/><path class="cls-6" d="M559.87,193.12a16.16,16.16,0,0,1-4.92,21c.06-.22.09-.44.14-.64a30.64,30.64,0,0,0-9.62-28.76A16.12,16.12,0,0,1,559.87,193.12Z"/><path class="cls-6" d="M695.81,430.8a16.17,16.17,0,0,1-19.89-7.3,15,15,0,0,1-1.24-2.94C682.22,422.67,689.91,425.68,695.81,430.8Z"/><path class="cls-6" d="M572.43,210.79a42,42,0,0,1-.93,6,104.15,104.15,0,0,1-4.82,15.49,11.11,11.11,0,0,1,5.75-21.47Z"/><path class="cls-6" d="M627,309.83a16.13,16.13,0,0,1-.29,16.11,37.93,37.93,0,0,0-7.14-11.74c-4.63-5-10.36-7.6-16.59-9.38a16.21,16.21,0,0,1,24,5Z"/><path class="cls-6" d="M711,459.73a16.15,16.15,0,0,1-9.11-22.4A44.55,44.55,0,0,1,711,459.73Z"/><path class="cls-6" d="M639.08,320a43.9,43.9,0,0,1,2.49,21.41,11.11,11.11,0,0,1-3.9-20.75A12.87,12.87,0,0,1,639.08,320Z"/><path class="cls-6" d="M563.09,178.37a16.17,16.17,0,0,1-22.93-16.73c7.9,2.8,15.56,7.16,22,15.47C562.47,177.52,562.78,178,563.09,178.37Z"/><path class="cls-6" d="M800.57,588.91a11.1,11.1,0,0,1-16.32,8.91A45.41,45.41,0,0,0,800.57,588.91Z"/><path class="cls-6" d="M818.84,573.65a55.38,55.38,0,0,1-8,13.44,11.14,11.14,0,0,1,5.43-12.4A11.94,11.94,0,0,1,818.84,573.65Z"/><path class="cls-6" d="M819.56,546.09A11.13,11.13,0,0,1,816.88,560a47.28,47.28,0,0,0-.25-17.38A10.88,10.88,0,0,1,819.56,546.09Z"/><path class="cls-6" d="M470.43,128.82a8.69,8.69,0,0,1-3.16,11.66,13.68,13.68,0,0,1-2.24-3.62h0a13.74,13.74,0,0,1-.87-2.58l-1.28-5.68h0l-1-4.21A8.7,8.7,0,0,1,470.43,128.82Z"/><path class="cls-6" d="M494,125.74a8.69,8.69,0,0,1-10.75-13.14l3.05,3.07,4.09,4.09a13.81,13.81,0,0,1,1.76,2.14h0A14,14,0,0,1,494,125.74Z"/><path class="cls-6" d="M470.43,128.82a8.69,8.69,0,0,1-3.16,11.66l-.25.15a8.7,8.7,0,1,1,3.41-11.81Z"/><circle class="cls-5" cx="462.82" cy="133.01" r="4.43"/><path class="cls-6" d="M497.68,113.8a8.69,8.69,0,0,1-3.41,11.81,2.24,2.24,0,0,1-.27.13,8.69,8.69,0,1,1,3.68-11.94Z"/><circle class="cls-5" cx="490.07" cy="117.99" r="4.43"/><line class="cls-16" x1="460.72" y1="106.43" x2="462.73" y2="107.53"/><line class="cls-16" x1="468.34" y1="102.23" x2="468.19" y2="104.52"/><path class="cls-17" d="M563.09,178.37a16.17,16.17,0,0,1-22.93-16.73c7.9,2.8,15.56,7.16,22,15.47C562.47,177.52,562.78,178,563.09,178.37Z"/><path class="cls-17" d="M558.38,231.46a16.17,16.17,0,0,1-13.5,24,40.11,40.11,0,0,1,.52-8.26c1-7.4,4-15,6.43-22.16A16.09,16.09,0,0,1,558.38,231.46Z"/><path class="cls-17" d="M587.48,294.68a16,16,0,0,1,2,7.1c-3-.65-6.06-1.34-9.07-2.23a51.51,51.51,0,0,1-18-9,16.18,16.18,0,0,1,25.1,4.09Z"/><path class="cls-17" d="M627,309.83a16.13,16.13,0,0,1-.29,16.11,37.93,37.93,0,0,0-7.14-11.74c-4.63-5-10.36-7.6-16.59-9.38a16.21,16.21,0,0,1,24,5Z"/><path class="cls-17" d="M624.51,361.86a16.17,16.17,0,0,1-6.35,22c-.18.1-.36.2-.54.28a41.63,41.63,0,0,1,1-10.56,123.89,123.89,0,0,1,4.17-14.22A15.38,15.38,0,0,1,624.51,361.86Z"/><path class="cls-17" d="M641.7,415.5a16,16,0,0,1,2,8.37,44.54,44.54,0,0,1-18.76-16.53A16.21,16.21,0,0,1,641.7,415.5Z"/><path class="cls-17" d="M695.81,430.8a16.17,16.17,0,0,1-19.89-7.3,15,15,0,0,1-1.24-2.94C682.22,422.67,689.91,425.68,695.81,430.8Z"/><path class="cls-17" d="M711,459.73a16.15,16.15,0,0,1-9.11-22.4A44.55,44.55,0,0,1,711,459.73Z"/><path class="cls-17" d="M705.74,532.42c.93,1.71,2,3.71,3.19,5.93a16.15,16.15,0,0,1-9.29-27C699.35,517.86,700.91,524.59,705.74,532.42Z"/><path class="cls-17" d="M559.87,193.12a16.16,16.16,0,0,1-4.92,21c.06-.22.09-.44.14-.64a30.64,30.64,0,0,0-9.62-28.76A16.12,16.12,0,0,1,559.87,193.12Z"/><path class="cls-17" d="M500,157.83a16.11,16.11,0,0,1,1.49,11.83,47.59,47.59,0,0,1-21.94-18.92A16.17,16.17,0,0,1,500,157.83Z"/><path class="cls-17" d="M522.25,156.92a10.86,10.86,0,0,1-3.78,3.42,11.11,11.11,0,0,1-15.1-4.37,10.94,10.94,0,0,1-1.19-7.39C507.75,153.11,514.75,155.14,522.25,156.92Z"/><path class="cls-17" d="M531.05,169.31a11.1,11.1,0,0,1,1,8.42c-6.58-1.93-14-3-20.49-4.74l-1.14-.29a11.12,11.12,0,0,1,20.67-3.39Z"/><path class="cls-17" d="M572.43,210.79a42,42,0,0,1-.93,6,104.15,104.15,0,0,1-4.82,15.49,11.11,11.11,0,0,1,5.75-21.47Z"/><path class="cls-17" d="M566.17,272a11.11,11.11,0,0,1-5.45-20.84l.35-.18A31,31,0,0,0,566.17,272Z"/><path class="cls-17" d="M611.3,292.33a10.85,10.85,0,0,1-4.31,4.29,11.11,11.11,0,0,1-16.48-9.79c5.38,1.29,11,2.34,16.61,4.1C608.51,291.34,609.91,291.8,611.3,292.33Z"/><path class="cls-17" d="M640.74,346.09c-1.5,6.88-4.35,13.7-6.71,20.23a11,11,0,0,1-3.37-3.75,11.12,11.12,0,0,1,10.08-16.48Z"/><path class="cls-17" d="M635.49,401.37a11.12,11.12,0,0,1-6.43-20.8,12.78,12.78,0,0,1,1.36-.63A33.07,33.07,0,0,0,635.49,401.37Z"/><path class="cls-17" d="M668.08,418.9a10.92,10.92,0,0,1-4.16,4,11.1,11.1,0,0,1-16.46-10.39c4.71,2.5,10.27,4.05,16.21,5.41Z"/><path class="cls-17" d="M677.81,431.64a9.91,9.91,0,0,1,.82,1.89c-5.66-2.11-11.9-3.27-18.16-4.63a11.11,11.11,0,0,1,17.34,2.74Z"/><path class="cls-17" d="M695.5,496.51a11.11,11.11,0,0,1-4.36,15.1c-.26.15-.53.28-.79.4a46.57,46.57,0,0,1,1.5-11.86c.54-2.08,1.14-4.1,1.78-6.13A10.76,10.76,0,0,1,695.5,496.51Z"/><path class="cls-17" d="M713.6,552.35a11.11,11.11,0,0,1-.34,11.31c-3.13-5.55-6.49-11.44-9.65-17.06A11.13,11.13,0,0,1,713.6,552.35Z"/><path class="cls-17" d="M729.87,577a11.12,11.12,0,0,1-9.43-17.33c2.79,5.19,5.38,10,7.27,13.52C728.4,574.49,729.11,575.77,729.87,577Z"/><path class="cls-17" d="M742.68,595a11,11,0,0,1,1.39,5.57,53.88,53.88,0,0,1-14.29-10.87A11.12,11.12,0,0,1,742.68,595Z"/><path class="cls-17" d="M800.57,588.91a11.1,11.1,0,0,1-16.32,8.91A45.41,45.41,0,0,0,800.57,588.91Z"/><path class="cls-17" d="M818.84,573.65a55.38,55.38,0,0,1-8,13.44,11.14,11.14,0,0,1,5.43-12.4A11.94,11.94,0,0,1,818.84,573.65Z"/><path class="cls-17" d="M819.56,546.09A11.13,11.13,0,0,1,816.88,560a47.28,47.28,0,0,0-.25-17.38A10.88,10.88,0,0,1,819.56,546.09Z"/><path class="cls-17" d="M774.27,606.48a55,55,0,0,1-16.78-1,10.4,10.4,0,0,1,2.56-2A11.13,11.13,0,0,1,774.27,606.48Z"/><path class="cls-17" d="M639.08,320a43.9,43.9,0,0,1,2.49,21.41,11.11,11.11,0,0,1-3.9-20.75A12.87,12.87,0,0,1,639.08,320Z"/><path class="cls-17" d="M559.43,277.26a11.12,11.12,0,0,1,0,10.72,29.61,29.61,0,0,1-2.19-2.29,49.63,49.63,0,0,1-8.83-14.11A11.13,11.13,0,0,1,559.43,277.26Z"/></svg>