<svg id="Capa_1" data-name="Capa 1" xmlns="http://www.w3.org/2000/svg" viewBox="0 0 878.86 624.97"><defs><style>.cls-1,.cls-13,.cls-14,.cls-7{fill:none;}.cls-1,.cls-10,.cls-11,.cls-7,.cls-8,.cls-9{stroke:#1d1d1b;}.cls-1,.cls-10,.cls-11,.cls-14{stroke-miterlimit:10;}.cls-2{fill:#f29bb7;}.cls-3{fill:#b4dbd3;}.cls-4{fill:#fff;}.cls-5,.cls-9{fill:#f7e1b1;}.cls-6{fill:#68a5d4;}.cls-7,.cls-8,.cls-9{stroke-linecap:round;stroke-linejoin:round;}.cls-11,.cls-8{fill:#f0eae0;}.cls-10,.cls-12{fill:#1d1d1b;}.cls-12{font-size:12px;font-family:Tanker-Regular, Tanker;}.cls-14{stroke:#1e1e1c;}</style></defs><path class="cls-1" d="M191.78,289.06h78.41a0,0,0,0,1,0,0v78.41a0,0,0,0,1,0,0h0a78.41,78.41,0,0,1-78.41-78.41v0A0,0,0,0,1,191.78,289.06Z" transform="translate(559.24 97.28) rotate(90)"/><path class="cls-1" d="M191.78,445.87h78.41a0,0,0,0,1,0,0v78.41a0,0,0,0,1,0,0h0a78.41,78.41,0,0,1-78.41-78.41v0A0,0,0,0,1,191.78,445.87Z" transform="translate(-254.09 716.05) rotate(-90)"/><rect class="cls-1" x="-43.44" y="445.87" width="78.41" height="78.41"/><rect class="cls-1" x="34.97" y="445.87" width="78.41" height="78.41"/><rect class="cls-1" x="113.37" y="445.87" width="78.41" height="78.41"/><rect class="cls-1" x="191.78" y="367.46" width="78.41" height="78.41"/><rect class="cls-1" x="270.18" y="289.06" width="78.41" height="78.41"/><rect class="cls-1" x="348.59" y="289.06" width="78.41" height="78.41"/><path class="cls-2" d="M343.51,176.53c10.93-10.93,14.94-9,14.94-9l-12,12-12,12S332.57,187.46,343.51,176.53Z"/><polygon class="cls-3" points="358.45 167.5 363.67 179.15 362.05 180.78 354.9 187.92 346.13 196.69 334.48 191.48 346.46 179.49 358.45 167.5"/><polygon class="cls-2" points="362.05 180.78 363.67 179.15 365.73 181.21 365.71 181.22 348.23 198.7 348.19 198.75 346.13 196.69 354.9 187.92 362.05 180.78"/><path class="cls-4" d="M357,208.54h0a14.36,14.36,0,0,1-8.74-9.83h0l17.48-17.48h0a14.33,14.33,0,0,1,10.8,13.91,13.81,13.81,0,0,1-.07,1.45,14.38,14.38,0,0,1-8.25,11.58h0l-.07,0,0,0a14.21,14.21,0,0,1-5.94,1.29A14,14,0,0,1,357,208.54Z"/><path class="cls-5" d="M384.52,187.77a10.76,10.76,0,0,1-.39,1.67,4.71,4.71,0,0,1-2,2.89c-1.85.88-5.19,1.76-5.63,4.27h-.07a13.81,13.81,0,0,0,.07-1.45A14.34,14.34,0,0,0,371.18,184a2.68,2.68,0,0,1,1.19-1.09,2.75,2.75,0,0,1,2.71.2l11.25,1.21a1.3,1.3,0,0,1,1,.73,1.29,1.29,0,0,1-.62,1.71l-1.83.87-.32.14Z"/><path class="cls-4" d="M400,180.26c-2.5,1.3-4.85,2.49-7,3.52q1.32-3.22,2.42-6.62a2.26,2.26,0,0,1,1.5-1.52C398,175.33,399.46,175.82,400,180.26Z"/><path class="cls-5" d="M438.92,145.58l.11,0,.14,0,.18,0a3.66,3.66,0,0,1,.44.13l.36.15c2.36,1.1,5.38,4.45,7.76,8.92a32.12,32.12,0,0,1,1.65,3.57c.19.47.35.92.5,1.37s.29.89.4,1.32a21.34,21.34,0,0,1,.51,2.44,7.15,7.15,0,0,1-.29,3.84,2.68,2.68,0,0,1-.32.52,1.87,1.87,0,0,1-.57.48,2.09,2.09,0,0,1-.44.16,2.07,2.07,0,0,1-.79,0l-.32,0-.33-.09h0a6.14,6.14,0,0,1-.68-.28,10.18,10.18,0,0,1-1.12-.68h0l-.18-.13h0a29.13,29.13,0,0,1-9.46-17.8s0-.11,0-.17h0a9.24,9.24,0,0,1,0-1.2,3.89,3.89,0,0,1,.08-.51,2.1,2.1,0,0,1,.06-.24h0a.79.79,0,0,1,.06-.22h0c0-.07,0-.14.07-.2h0l.09-.2h0a1,1,0,0,1,.1-.18,1,1,0,0,1,.1-.17h0l.07-.09a1.79,1.79,0,0,1,.62-.54l.21-.1a1.82,1.82,0,0,1,.46-.11h.54Z"/><path class="cls-5" d="M384.91,187.59c1.63-.74,4.5-2.07,8.08-3.81,2.11-1,4.46-2.22,7-3.52,15.67-8.18,36.77-21,36.48-30.72a29.13,29.13,0,0,0,9.46,17.8,9.74,9.74,0,0,0-5-1.52.55.55,0,0,0-.18,0c-10.18-.54-27.84,7.86-40.7,14.91-2.76,1.5-5.29,2.95-7.49,4.23-2,1.2-3.78,2.24-5.13,3.07l-.14.09-2.16,1.33a.89.89,0,0,1-.94,0,10.76,10.76,0,0,0,.39-1.67l.07,0Z"/><path class="cls-4" d="M406.53,188.14s2.92.41,1.39,6.52a28.23,28.23,0,0,1-8.36.15l2.15-3.8C404,187,406.53,188.14,406.53,188.14Z"/><path class="cls-4" d="M400.11,183.07c.05,2.89-.81,7-2.11,11.48a21.63,21.63,0,0,1-8.29-3.5c1-2,1.92-4,2.79-6.1,2.2-1.28,4.73-2.73,7.49-4.23C400.06,181.41,400.1,182.19,400.11,183.07Z"/><path class="cls-6" d="M389.36,191.76a13.91,13.91,0,0,1-.91-1.73,9.85,9.85,0,0,0,1.26,1,21.63,21.63,0,0,0,8.29,3.5c.5.1,1,.18,1.56.26a28.23,28.23,0,0,0,8.36-.15A42.67,42.67,0,0,0,421.18,190c21.4-11.43,20.07-22,20.07-22s9.94,13.9-17.14,28.38c-7.47,4-13.53,5.29-18.39,5.1a19.69,19.69,0,0,1-8.62-2.26l-.45-.25A20.48,20.48,0,0,1,389.36,191.76Z"/><path class="cls-4" d="M405.93,222.81c.36-.58,3.52-5.58,5-4.78,1.81.95-1.45,8.13-1.45,8.13s-13.9,36.7-33.46,40.13a20.44,20.44,0,0,0,1.77-8.32v-8.26a12,12,0,0,0-4.75-9.58,10.64,10.64,0,0,0-1.1-.75h0a3.06,3.06,0,0,1-.15-3.93c1.15-1.53,4.3-8.9-1.94-13.78a13.5,13.5,0,0,1-1.1-1,125.47,125.47,0,0,0,20.57-29,20.48,20.48,0,0,0,7.29,7.15c-.28.85-.58,1.72-.87,2.57.07-.11.59-1,1.32-2.32a19.69,19.69,0,0,0,8.62,2.26c-.86,2.39-1.86,5.07-2.88,7.76.48-.87,4.79-8.39,7.6-6.88C412.75,203.54,412,211.35,405.93,222.81Z"/><path class="cls-4" d="M362.21,227.25a7,7,0,0,1-4,6.24l-8.69,4.15A114.89,114.89,0,0,0,362.21,227.25Z"/><path class="cls-4" d="M269.82,240.49a2.83,2.83,0,0,1,2.83-2.83h34.06l0,0a7.75,7.75,0,0,0-7,7.71v8.15l-27.87-10.19A3.07,3.07,0,0,1,269.82,240.49Z"/><path class="cls-4" d="M349.47,237.66h0l0,0,8.69-4.15a7,7,0,0,0,4-6.24,6.73,6.73,0,0,0-2.55-5.5l-.11-.09c-7.65-6-3.39-12.83-2.57-13.12h0a14,14,0,0,0,5.16,1,14.21,14.21,0,0,0,5.94-1.29c-1,.62-5.15,6.9.7,12.49a13.5,13.5,0,0,0,1.1,1c6.24,4.88,3.09,12.25,1.94,13.78a3.06,3.06,0,0,0,.15,3.93h0a2.47,2.47,0,0,0,1.1.75,12,12,0,0,1,4.75,9.58V258a20.34,20.34,0,0,1-20.36,20.36H320.06A20.37,20.37,0,0,1,299.7,258V245.41a7.75,7.75,0,0,1,7-7.71c.25,0,.51,0,.76,0h42Z"/><path class="cls-1" d="M357,208.54a14.36,14.36,0,0,1-8.74-9.83"/><path class="cls-1" d="M368.09,208.22a14.21,14.21,0,0,1-5.94,1.29,14,14,0,0,1-5.16-1"/><path class="cls-1" d="M368.19,208.18l-.07,0"/><path class="cls-1" d="M365.72,181.23a14.33,14.33,0,0,1,10.8,13.91,13.81,13.81,0,0,1-.07,1.45,14.38,14.38,0,0,1-8.25,11.58"/><line class="cls-1" x1="362.06" y1="180.78" x2="362.05" y2="180.78"/><path class="cls-1" d="M366.62,189.39a8.4,8.4,0,0,1,1.93,2.94,8.52,8.52,0,0,1-15.87,6.21"/><path class="cls-1" d="M372,239.38a3.06,3.06,0,0,1-.15-3.93c1.15-1.53,4.3-8.9-1.94-13.78a13.5,13.5,0,0,1-1.1-1c-5.85-5.59-1.69-11.87-.7-12.49l0,0,.07,0h0"/><path class="cls-1" d="M373.56,240.2a1.55,1.55,0,0,1-.48-.07,2.47,2.47,0,0,1-1.1-.75"/><path class="cls-1" d="M357,208.54h0c-.82.29-5.08,7.15,2.57,13.12l.11.09a6.73,6.73,0,0,1,2.55,5.5,7,7,0,0,1-4,6.24l-8.69,4.15"/><path class="cls-1" d="M349.47,237.66h-42c-.25,0-.51,0-.76,0a7.75,7.75,0,0,0-7,7.71V258a20.37,20.37,0,0,0,20.36,20.36h37.41A20.34,20.34,0,0,0,377.83,258v-8.26a12,12,0,0,0-4.75-9.58,10.64,10.64,0,0,0-1.1-.75h0"/><line class="cls-1" x1="288.27" y1="240.49" x2="269.82" y2="240.49"/><path class="cls-1" d="M306.69,237.7l0,0H272.65a2.83,2.83,0,0,0-2.83,2.83,3.07,3.07,0,0,0,2,2.88l27.87,10.19"/><path class="cls-1" d="M333.66,278.33c4.29,3.73.28,7.23-2.07,10.73"/><path class="cls-1" d="M340,278.33c4.29,3.73.28,7.23-2.07,10.73"/><path class="cls-1" d="M377.2,186.64,376,184.17a2.71,2.71,0,0,0-1-1.1,2.75,2.75,0,0,0-2.71-.2,2.68,2.68,0,0,0-1.19,1.09"/><path class="cls-1" d="M384.91,187.59l1.83-.87a1.28,1.28,0,0,0-.41-2.44l-11.25-1.21"/><line class="cls-1" x1="377.64" y1="191.01" x2="384.13" y2="187.95"/><path class="cls-1" d="M376.52,196.6c.44-2.51,3.78-3.39,5.63-4.27a4.71,4.71,0,0,0,2-2.89,10.76,10.76,0,0,0,.39-1.67"/><path class="cls-1" d="M314.37,237.66a20.9,20.9,0,0,0-5.6,15.9c.62,6.84,6.53,14,13.41,14h31.45"/><line class="cls-1" x1="363.72" y1="203.37" x2="364.95" y2="206.49"/><polyline class="cls-1" points="357.49 203.35 357.49 203.36 356.25 206.17"/><line class="cls-1" x1="368.3" y1="199.13" x2="371.16" y2="200.38"/><polyline class="cls-7" points="363.67 179.15 365.73 181.21 365.71 181.22 348.23 198.7 348.19 198.75 346.13 196.69"/><polyline class="cls-7" points="334.48 191.48 346.13 196.69 354.9 187.92 362.05 180.78 363.67 179.15 358.45 167.5"/><path class="cls-7" d="M358.45,167.5s-4-1.9-14.94,9-9,14.95-9,14.95l12-12Z"/><path class="cls-7" d="M393,183.78q1.32-3.22,2.42-6.62a2.26,2.26,0,0,1,1.5-1.52c1.08-.31,2.55.18,3,4.62"/><path class="cls-7" d="M395.78,201.48c.29-.85.59-1.72.87-2.57"/><path class="cls-7" d="M387.48,222.25s4.64-10.23,8.3-20.76"/><path class="cls-7" d="M400,180.72c.07.69.11,1.47.12,2.35.05,2.89-.81,7-2.11,11.48"/><path class="cls-7" d="M368.79,220.71a125.47,125.47,0,0,0,20.57-29"/><path class="cls-7" d="M362.21,227.25a114.89,114.89,0,0,1-12.69,10.39l0,0h0"/><path class="cls-7" d="M392.5,185c-.87,2.09-1.81,4.12-2.79,6.1"/><path class="cls-7" d="M402.84,209.18c.48-.87,4.79-8.39,7.6-6.88,2.31,1.24,1.51,9-4.51,20.51"/><path class="cls-7" d="M402.79,209.26l0-.07"/><path class="cls-7" d="M405.9,222.87l0-.06c.36-.58,3.52-5.58,5-4.78,1.81.95-1.45,8.13-1.45,8.13s-13.9,36.7-33.46,40.13h0"/><path class="cls-7" d="M399.56,194.81l2.15-3.8c2.28-4,4.82-2.87,4.82-2.87s2.92.41,1.39,6.52"/><path class="cls-7" d="M405.72,201.42c-.86,2.39-1.86,5.07-2.88,7.76h0s0,0,0,.05v0c-2.95,7.71-6,15.33-6,15.33"/><path class="cls-7" d="M397.1,199.16c-.73,1.29-1.25,2.21-1.32,2.32h0"/><path class="cls-7" d="M437,146.42l.07-.09"/><path class="cls-7" d="M436.82,146.78a1,1,0,0,1,.1-.18,1,1,0,0,1,.1-.17"/><path class="cls-7" d="M436.73,147l.09-.2"/><path class="cls-7" d="M436.66,147.19c0-.07,0-.14.07-.2"/><path class="cls-7" d="M436.6,147.42a.79.79,0,0,1,.06-.22"/><path class="cls-7" d="M436.54,147.66a2.1,2.1,0,0,1,.06-.24"/><path class="cls-7" d="M445.89,167.34a29.13,29.13,0,0,1-9.46-17.8"/><path class="cls-7" d="M447.89,168.45a4.67,4.67,0,0,1-.68-.28,8.83,8.83,0,0,1-1.12-.68"/><path class="cls-7" d="M449.35,168.57a2.08,2.08,0,0,1-.79,0,1.25,1.25,0,0,1-.32,0l-.33-.09"/><path class="cls-7" d="M450.46,161.13a21.34,21.34,0,0,1,.51,2.44,7.15,7.15,0,0,1-.29,3.84,2.68,2.68,0,0,1-.32.52"/><path class="cls-7" d="M449.56,158.44c.19.47.35.92.5,1.37"/><path class="cls-7" d="M447.22,163.59c-1.09.58-3.52-1.86-5.44-5.45s-2.58-7-1.5-7.54"/><path class="cls-7" d="M440.87,165.82a9.74,9.74,0,0,1,5,1.52h0l.18.13"/><path class="cls-7" d="M387.37,188c1.35-.83,3.09-1.87,5.13-3.07,2.2-1.28,4.73-2.73,7.49-4.23,12.86-7.05,30.52-15.45,40.7-14.91"/><path class="cls-7" d="M384.13,189.44a.89.89,0,0,0,.94,0l2.16-1.33"/><path class="cls-7" d="M440.15,146c2.36,1.1,5.38,4.45,7.76,8.92a32.12,32.12,0,0,1,1.65,3.57c.19.47.35.92.5,1.37s.29.89.4,1.32a17.46,17.46,0,0,1,.51,2.44,7.15,7.15,0,0,1-.29,3.84,2.27,2.27,0,0,1-.32.52,1.87,1.87,0,0,1-.57.48,2.09,2.09,0,0,1-.44.16,2.07,2.07,0,0,1-.79,0l-.32,0-.33-.09h0a6.14,6.14,0,0,1-.68-.28,10.18,10.18,0,0,1-1.12-.68h0"/><path class="cls-7" d="M439,145.6l.14,0"/><path class="cls-7" d="M437.71,145.79l.21-.1a1.82,1.82,0,0,1,.46-.11"/><path class="cls-7" d="M436.85,146.72a1.17,1.17,0,0,1,.17-.29h0"/><path class="cls-7" d="M436.73,147h0"/><path class="cls-7" d="M436.59,147.43a0,0,0,0,1,0,0"/><path class="cls-7" d="M436.42,149.37h0a7.59,7.59,0,0,1,0-1.2,3.89,3.89,0,0,1,.08-.51"/><line class="cls-7" x1="439.59" y1="159.32" x2="439.58" y2="159.32"/><line class="cls-7" x1="436.43" y1="149.38" x2="436.42" y2="149.37"/><path class="cls-7" d="M384.13,188l.05,0,0,0s0,0,0,0l.17-.07.11,0,.07,0,.32-.14c1.63-.74,4.5-2.07,8.08-3.81,2.11-1,4.46-2.22,7-3.52,15.67-8.18,36.77-21,36.48-30.72,0,0,0-.11,0-.17h0a9.24,9.24,0,0,1,0-1.2,3.89,3.89,0,0,1,.08-.51,1.55,1.55,0,0,1,0-.23,0,0,0,0,1,0,0h0a.79.79,0,0,1,.06-.22h0a1.18,1.18,0,0,1,.07-.2h0a1.76,1.76,0,0,1,.09-.2h0a.33.33,0,0,1,0-.06.35.35,0,0,1,.07-.12,1,1,0,0,1,.1-.17h0l.07-.09a1.79,1.79,0,0,1,.62-.54l.21-.1a1.82,1.82,0,0,1,.46-.11h.54l.11,0,.14,0,.18,0a3.66,3.66,0,0,1,.44.13l.36.15"/><path class="cls-7" d="M441.25,167.94h0a1.13,1.13,0,0,1-1.06-2,1,1,0,0,1,.51-.13.55.55,0,0,1,.18,0,1.12,1.12,0,0,1,.84.58A1.14,1.14,0,0,1,441.25,167.94Z"/><path class="cls-7" d="M388.44,190a1.12,1.12,0,0,1-1.53-.46,1.14,1.14,0,0,1,.32-1.45l.14-.09a1.14,1.14,0,0,1,1.53.47A1.12,1.12,0,0,1,388.44,190Z"/><path class="cls-7" d="M441.25,167.94s9.94,13.9-17.14,28.38c-7.47,4-13.53,5.29-18.39,5.1a19.69,19.69,0,0,1-8.62-2.26l-.45-.25a20.48,20.48,0,0,1-7.29-7.15,13.91,13.91,0,0,1-.91-1.73,9.85,9.85,0,0,0,1.26,1,21.63,21.63,0,0,0,8.29,3.5c.5.1,1,.18,1.56.26a28.23,28.23,0,0,0,8.36-.15A42.67,42.67,0,0,0,421.18,190C442.58,178.52,441.25,167.94,441.25,167.94Z"/><circle class="cls-8" cx="479.94" cy="328.31" r="76.69"/><circle class="cls-9" cx="479.94" cy="328.31" r="65.51"/><path class="cls-4" d="M436.56,331.68h3.22v5.82h-6.43a2.91,2.91,0,0,1-2.91-2.91,2.87,2.87,0,0,1,.85-2.06,2.9,2.9,0,0,1,2.06-.85h3.21Z"/><polygon class="cls-4" points="445.56 331.68 448.62 331.68 448.62 332.87 448.62 336.31 448.62 337.5 442.84 337.5 439.78 337.5 439.78 336.31 439.78 332.87 439.78 331.68 445.56 331.68"/><polygon class="cls-4" points="454.56 331.68 457.44 331.68 457.44 332.87 457.44 336.31 457.44 337.5 453.86 337.5 451.67 337.5 448.62 337.5 448.62 336.31 448.62 332.87 448.62 331.68 454.56 331.68"/><polygon class="cls-4" points="460.5 337.5 457.44 337.5 457.44 336.31 457.44 332.87 457.44 331.68 463.55 331.68 466.28 331.68 466.28 332.87 466.28 336.31 466.28 337.5 460.5 337.5"/><path class="cls-4" d="M481.54,331.88a2.91,2.91,0,0,1,1,4.77,2.86,2.86,0,0,1-2.05.85h-5.35v-5.82h5.35A3,3,0,0,1,481.54,331.88Z"/><polygon class="cls-4" points="472.55 331.68 475.11 331.68 475.11 332.87 475.11 336.31 475.11 337.5 469.33 337.5 466.28 337.5 466.28 336.31 466.28 332.87 466.28 331.68 472.55 331.68"/><path class="cls-4" d="M490.59,247h-.35a2.63,2.63,0,0,1-2.63-2.63,2.63,2.63,0,0,1,2.63-2.63h6.13V247h-5.78Z"/><path class="cls-4" d="M516,241.75h.61a2.63,2.63,0,0,1,2.63,2.63A2.6,2.6,0,0,1,516.6,247h-6.11v-5.26Z"/><polygon class="cls-4" points="507.27 241.75 510.49 241.75 510.49 242.83 510.49 245.94 510.49 247.01 504.71 247.01 503.42 247.01 499.42 247.01 496.37 247.01 496.37 245.94 496.37 242.83 496.37 241.75 502.14 241.75 507.27 241.75"/><path class="cls-2" d="M512.43,233.1c.87,0,1.57,1.22,1.57,2.72s-.7,2.72-1.57,2.72-1.57-1.22-1.57-2.72S511.56,233.1,512.43,233.1Z"/><path class="cls-2" d="M501.71,235.82c0-1.5.71-2.72,1.58-2.72s1.57,1.22,1.57,2.72-.71,2.72-1.57,2.72S501.71,237.32,501.71,235.82Z"/><path class="cls-2" d="M494.41,233.1c.87,0,1.57,1.22,1.57,2.72s-.7,2.72-1.57,2.72-1.57-1.22-1.57-2.72S493.54,233.1,494.41,233.1Z"/><path class="cls-2" d="M501.14,225.1h0l-2.85,5a1.31,1.31,0,0,1-2.29,0l-1.07-1.89h0S498,225.11,501.14,225.1Z"/><path class="cls-2" d="M511.93,228.26l-1.07,1.89a1.31,1.31,0,0,1-2.29,0l-2.85-5C508.89,225.12,511.93,228.26,511.93,228.26Z"/><path class="cls-5" d="M501.71,235.82c0,1.5.71,2.72,1.58,2.72s1.57-1.22,1.57-2.72-.71-2.72-1.57-2.72S501.71,234.32,501.71,235.82Zm-8.87,0c0,1.5.7,2.72,1.57,2.72s1.57-1.22,1.57-2.72-.7-2.72-1.57-2.72S492.84,234.32,492.84,235.82Zm12.87-10.71h0l2.85,5a1.31,1.31,0,0,0,2.29,0l1.07-1.89,3.3-5.86a.41.41,0,0,1,.76.2v19.15H490.87V222.61a.41.41,0,0,1,.76-.21l3.3,5.85h0l1.07,1.89a1.31,1.31,0,0,0,2.29,0l2.85-5h0l1.93-3.42a.41.41,0,0,1,.71,0l1.93,3.42Zm5.15,10.71c0,1.5.7,2.72,1.57,2.72s1.57-1.22,1.57-2.72-.7-2.72-1.57-2.72S510.86,234.32,510.86,235.82Z"/><path class="cls-5" d="M515.87,262.78a14.39,14.39,0,0,0,.27-14,2.69,2.69,0,0,1,1.55-.49,2.76,2.76,0,0,1,2.36,1.33l9.68,5.92a1.27,1.27,0,0,1,.24,2,1.24,1.24,0,0,1-.9.38H526.6s-2.05,3.13-4.1,3.13S517.35,260.7,515.87,262.78Z"/><path class="cls-4" d="M503.42,250.9a4.66,4.66,0,1,1-4.65,4.65A4.65,4.65,0,0,1,503.42,250.9Z"/><path class="cls-4" d="M503.42,260.21a4.66,4.66,0,1,0-4.65-4.66A4.66,4.66,0,0,0,503.42,260.21Zm0-13.2a8.54,8.54,0,1,1-8.53,8.54A8.54,8.54,0,0,1,503.42,247Z"/><path class="cls-4" d="M515,247a15,15,0,0,1,1.13,1.79,14.4,14.4,0,0,1-6.66,19.81h-.05a.21.21,0,0,0-.09.05l-.7.29H498.23a14.39,14.39,0,0,1-6.39-22h11.58a8.54,8.54,0,1,0,8.54,8.54,8.53,8.53,0,0,0-8.54-8.54H515Z"/><path class="cls-4" d="M497.1,269h3.22v6.68h-5a3,3,0,0,1-.8-.1,3.34,3.34,0,0,1,.8-6.58Z"/><path class="cls-4" d="M511.1,275.65H500.32V269H511a2.9,2.9,0,0,1,.79.1,3.34,3.34,0,0,1-.39,6.56h0A1.56,1.56,0,0,0,511.1,275.65Z"/><path class="cls-6" d="M511.44,275.63a2.72,2.72,0,1,1-.38,0h0a1.56,1.56,0,0,0,.31,0Z"/><path class="cls-4" d="M513.12,295.93a3.08,3.08,0,0,0,.16,3.95,11.94,11.94,0,0,0-6.22-1.73H500.6L511,281.94l.22.18C517.43,287,514.27,294.4,513.12,295.93Z"/><path class="cls-4" d="M513.29,299.88a10.52,10.52,0,0,1,1.06.73h0a12,12,0,0,1,4.77,9.6v8.28a20.4,20.4,0,0,1-20.4,20.4H461.26a20.24,20.24,0,0,1-7.4-1.39h26.6a2.86,2.86,0,0,0,2.05-.85,2.91,2.91,0,0,0-1-4.77,3,3,0,0,0-1.08-.2H479.2l21.4-33.53h6.46a11.94,11.94,0,0,1,6.22,1.73Z"/><path class="cls-4" d="M413,303.87a3.07,3.07,0,0,1-2-2.88,2.84,2.84,0,0,1,2.83-2.84h34.11a11.41,11.41,0,0,0-7,5.45,34.48,34.48,0,0,0-4.1,9Z"/><path class="cls-2" d="M494.54,275.55a3,3,0,0,0,.8.1h15.72a2.77,2.77,0,0,0,.38,5.51l-.49.78L500.6,298.15l-21.4,33.53H434a61,61,0,0,1,2.75-19.11,34.48,34.48,0,0,1,4.1-9,11.41,11.41,0,0,1,7-5.45c29.1-6,45.51-23.13,45.51-23.13h0A3.32,3.32,0,0,0,494.54,275.55Z"/><path class="cls-1" d="M516.14,248.8A15,15,0,0,0,515,247"/><path class="cls-1" d="M509.34,268.68l-.7.29h0"/><path class="cls-1" d="M515.87,262.78a14.43,14.43,0,0,1-6.39,5.83"/><path class="cls-1" d="M498.25,269h0a14.39,14.39,0,0,1-6.39-22"/><circle class="cls-1" cx="503.42" cy="255.55" r="8.53"/><path class="cls-10" d="M503.42,260.21a4.66,4.66,0,1,1,4.66-4.66A4.66,4.66,0,0,1,503.42,260.21Z"/><path class="cls-1" d="M509.5,268.61h-.07a.21.21,0,0,0-.09.05"/><path class="cls-1" d="M498.29,269h0"/><line class="cls-1" x1="429.41" y1="300.99" x2="410.93" y2="300.99"/><line class="cls-1" x1="474.88" y1="338.89" x2="474.88" y2="349.63"/><line class="cls-1" x1="482.85" y1="338.89" x2="482.85" y2="349.63"/><path class="cls-1" d="M520.05,249.64a2.76,2.76,0,0,1,.4,1.42v2.73"/><path class="cls-1" d="M520.05,249.64l9.68,5.92a1.27,1.27,0,0,1,.24,2,1.24,1.24,0,0,1-.9.38H526.6s-2.05,3.13-4.1,3.13-5.15-.37-6.63,1.71a14.39,14.39,0,0,0,.27-14,2.69,2.69,0,0,1,1.55-.49A2.76,2.76,0,0,1,520.05,249.64Z"/><line class="cls-1" x1="526.6" y1="257.94" x2="518.98" y2="257.94"/><line class="cls-1" x1="494.9" y1="328.11" x2="481.49" y2="328.11"/><path class="cls-1" d="M511.06,275.65H495.34a3,3,0,0,1-.8-.1,3.34,3.34,0,0,1,.8-6.58H511a2.9,2.9,0,0,1,.79.1,3.34,3.34,0,0,1-.39,6.56"/><path class="cls-1" d="M511.41,275.63a1.56,1.56,0,0,0-.31,0"/><path class="cls-1" d="M511.44,275.63a2.72,2.72,0,1,1-.38,0h0a1.56,1.56,0,0,0,.31,0Z"/><path class="cls-1" d="M447.87,298.15a11.41,11.41,0,0,0-7,5.45,34.48,34.48,0,0,0-4.1,9L413,303.87a3.07,3.07,0,0,1-2-2.88,2.84,2.84,0,0,1,2.83-2.84Z"/><path class="cls-1" d="M447.87,298.15c29.1-6,45.51-23.13,45.51-23.13"/><path class="cls-1" d="M434,331.68a61,61,0,0,1,2.75-19.11"/><path class="cls-1" d="M453.86,337.5H433.35a2.91,2.91,0,0,1-2.91-2.91,2.87,2.87,0,0,1,.85-2.06,2.9,2.9,0,0,1,2.06-.85H479.2"/><path class="cls-1" d="M513.28,299.88h0a10.52,10.52,0,0,1,1.06.73h0a12,12,0,0,1,4.77,9.6v8.28a20.4,20.4,0,0,1-20.4,20.4H461.26a20.24,20.24,0,0,1-7.4-1.39h26.6a2.86,2.86,0,0,0,2.05-.85,2.91,2.91,0,0,0-1-4.77,3,3,0,0,0-1.08-.2H479.2l21.4-33.53"/><path class="cls-1" d="M513.28,299.88a11.94,11.94,0,0,0-6.22-1.73H500.6L511,281.94l.22.18c6.26,4.89,3.1,12.28,1.95,13.81A3.08,3.08,0,0,0,513.28,299.88Z"/><line class="cls-1" x1="511.44" y1="281.16" x2="510.95" y2="281.94"/><path class="cls-1" d="M516,241.75h.61a2.63,2.63,0,0,1,2.63,2.63A2.6,2.6,0,0,1,516.6,247H490.24a2.63,2.63,0,0,1-2.63-2.63,2.63,2.63,0,0,1,2.63-2.63h.63"/><path class="cls-1" d="M494.93,228.25s3-3.14,6.21-3.15"/><path class="cls-1" d="M505.71,225.11h0l-1.93-3.42a.41.41,0,0,0-.71,0l-1.93,3.42h0l-2.85,5a1.31,1.31,0,0,1-2.29,0l-1.07-1.89h0l-3.3-5.85a.41.41,0,0,0-.76.21v19.14H516V222.6a.41.41,0,0,0-.76-.2l-3.3,5.86-1.07,1.89a1.31,1.31,0,0,1-2.29,0l-2.85-5"/><path class="cls-1" d="M511.93,228.26s-3-3.14-6.21-3.15h0"/><path class="cls-1" d="M503.29,238.54c-.87,0-1.58-1.22-1.58-2.72s.71-2.72,1.58-2.72,1.57,1.22,1.57,2.72S504.15,238.54,503.29,238.54Z"/><path class="cls-1" d="M494.41,238.54c-.87,0-1.57-1.22-1.57-2.72s.7-2.72,1.57-2.72,1.57,1.22,1.57,2.72S495.28,238.54,494.41,238.54Z"/><path class="cls-1" d="M512.43,238.54c-.87,0-1.57-1.22-1.57-2.72s.7-2.72,1.57-2.72,1.57,1.22,1.57,2.72S513.3,238.54,512.43,238.54Z"/><line class="cls-1" x1="434.01" y1="337.5" x2="434.01" y2="334.05"/><line class="cls-1" x1="436.56" y1="335.12" x2="436.56" y2="331.68"/><line class="cls-1" x1="439.78" y1="336.31" x2="439.78" y2="332.86"/><line class="cls-1" x1="448.61" y1="336.31" x2="448.61" y2="332.86"/><line class="cls-1" x1="457.45" y1="336.31" x2="457.45" y2="332.86"/><line class="cls-1" x1="466.28" y1="336.31" x2="466.28" y2="332.86"/><line class="cls-1" x1="475.11" y1="336.31" x2="475.11" y2="332.86"/><line class="cls-1" x1="445.56" y1="335.12" x2="445.56" y2="331.68"/><line class="cls-1" x1="454.56" y1="335.12" x2="454.56" y2="331.68"/><line class="cls-1" x1="463.55" y1="335.12" x2="463.55" y2="331.68"/><line class="cls-1" x1="472.54" y1="335.12" x2="472.54" y2="331.68"/><line class="cls-1" x1="481.54" y1="335.12" x2="481.54" y2="331.88"/><line class="cls-1" x1="442.84" y1="337.5" x2="442.84" y2="334.05"/><line class="cls-1" x1="494.54" y1="275.55" x2="494.54" y2="271.69"/><line class="cls-1" x1="497.1" y1="272.92" x2="497.1" y2="268.97"/><line class="cls-1" x1="500.32" y1="274.29" x2="500.32" y2="270.33"/><line class="cls-1" x1="506.09" y1="272.92" x2="506.09" y2="268.97"/><line class="cls-1" x1="503.37" y1="275.65" x2="503.37" y2="271.69"/><line class="cls-1" x1="509.28" y1="275.65" x2="509.28" y2="271.69"/><line class="cls-1" x1="511.83" y1="272.92" x2="511.83" y2="269.07"/><line class="cls-1" x1="490.59" y1="247.01" x2="490.59" y2="243.9"/><line class="cls-1" x1="493.15" y1="244.87" x2="493.15" y2="241.75"/><line class="cls-1" x1="496.37" y1="245.94" x2="496.37" y2="242.83"/><line class="cls-1" x1="502.14" y1="244.87" x2="502.14" y2="241.75"/><line class="cls-1" x1="499.42" y1="247.01" x2="499.42" y2="243.9"/><line class="cls-1" x1="504.71" y1="247.01" x2="504.71" y2="243.9"/><line class="cls-1" x1="507.27" y1="244.87" x2="507.27" y2="241.75"/><line class="cls-1" x1="510.49" y1="245.94" x2="510.49" y2="242.83"/><line class="cls-1" x1="516.26" y1="244.87" x2="516.26" y2="241.75"/><line class="cls-1" x1="513.54" y1="247.01" x2="513.54" y2="243.9"/><line class="cls-1" x1="451.67" y1="337.5" x2="451.67" y2="334.05"/><line class="cls-1" x1="460.5" y1="337.5" x2="460.5" y2="334.05"/><line class="cls-1" x1="469.33" y1="337.5" x2="469.33" y2="334.05"/><line class="cls-1" x1="478.17" y1="337.5" x2="478.17" y2="334.05"/><circle class="cls-11" cx="20.45" cy="459.73" r="8.5"/><text class="cls-12" transform="translate(15.95 464.23)">41</text><circle class="cls-11" cx="98.81" cy="459.73" r="8.5"/><text class="cls-12" transform="translate(93.49 464.23)">42</text><circle class="cls-11" cx="177.33" cy="459.73" r="8.5"/><text class="cls-12" transform="translate(171.93 464.23)">43</text><circle class="cls-11" cx="237.52" cy="489.43" r="8.5"/><text class="cls-12" transform="translate(231.94 493.93)">44</text><circle class="cls-11" cx="254.53" cy="383.94" r="8.5"/><text class="cls-12" transform="translate(249.07 388.44)">45</text><circle class="cls-11" cx="226.14" cy="322.12" r="8.5"/><text class="cls-12" transform="translate(220.61 326.62)">46</text><circle class="cls-11" cx="333.57" cy="305.36" r="8.5"/><text class="cls-12" transform="translate(328.45 309.86)">47</text><path class="cls-13" d="M169.68,337.45c-14.81,4.37-20.42,10-24.79,24.79a3,3,0,0,1-5.72,0c-4.37-14.81-10-20.42-24.79-24.79a3,3,0,0,1,0-5.72c14.81-4.37,20.42-10,24.79-24.79a3,3,0,0,1,5.72,0c4.37,14.81,10,20.42,24.79,24.79A3,3,0,0,1,169.68,337.45Z"/><path class="cls-14" d="M169.68,337.45c-14.81,4.37-20.42,10-24.79,24.79a3,3,0,0,1-5.72,0c-4.37-14.81-10-20.42-24.79-24.79a3,3,0,0,1,0-5.72c14.81-4.37,20.42-10,24.79-24.79a3,3,0,0,1,5.72,0c4.37,14.81,10,20.42,24.79,24.79A3,3,0,0,1,169.68,337.45Z"/><path class="cls-13" d="M841.61,57.25c-14.81,4.36-20.42,10-24.79,24.78a3,3,0,0,1-5.72,0c-4.37-14.81-10-20.42-24.79-24.78a3,3,0,0,1,0-5.73c14.81-4.36,20.42-10,24.79-24.79a3,3,0,0,1,5.72,0c4.37,14.81,10,20.43,24.79,24.79A3,3,0,0,1,841.61,57.25Z"/><path class="cls-14" d="M841.61,57.25c-14.81,4.36-20.42,10-24.79,24.78a3,3,0,0,1-5.72,0c-4.37-14.81-10-20.42-24.79-24.78a3,3,0,0,1,0-5.73c14.81-4.36,20.42-10,24.79-24.79a3,3,0,0,1,5.72,0c4.37,14.81,10,20.43,24.79,24.79A3,3,0,0,1,841.61,57.25Z"/><path class="cls-13" d="M773.05,362.18c-14.81,4.37-20.42,10-24.79,24.79a3,3,0,0,1-5.72,0c-4.37-14.81-10-20.42-24.79-24.79a3,3,0,0,1,0-5.72c14.81-4.37,20.42-10,24.79-24.79a3,3,0,0,1,5.72,0c4.37,14.81,10,20.42,24.79,24.79A3,3,0,0,1,773.05,362.18Z"/><path class="cls-14" d="M773.05,362.18c-14.81,4.37-20.42,10-24.79,24.79a3,3,0,0,1-5.72,0c-4.37-14.81-10-20.42-24.79-24.79a3,3,0,0,1,0-5.72c14.81-4.37,20.42-10,24.79-24.79a3,3,0,0,1,5.72,0c4.37,14.81,10,20.42,24.79,24.79A3,3,0,0,1,773.05,362.18Z"/><path class="cls-13" d="M653.84,572.6c-14.81,4.36-20.42,10-24.78,24.78a3,3,0,0,1-5.73,0c-4.36-14.81-10-20.42-24.78-24.78a3,3,0,0,1,0-5.73c14.8-4.36,20.42-10,24.78-24.79a3,3,0,0,1,5.73,0c4.36,14.81,10,20.43,24.78,24.79A3,3,0,0,1,653.84,572.6Z"/><path class="cls-14" d="M653.84,572.6c-14.81,4.36-20.42,10-24.78,24.78a3,3,0,0,1-5.73,0c-4.36-14.81-10-20.42-24.78-24.78a3,3,0,0,1,0-5.73c14.8-4.36,20.42-10,24.78-24.79a3,3,0,0,1,5.73,0c4.36,14.81,10,20.43,24.78,24.79A3,3,0,0,1,653.84,572.6Z"/><path class="cls-13" d="M568.83,483.79c-14.8,4.36-20.42,10-24.78,24.78a3,3,0,0,1-5.73,0c-4.36-14.81-10-20.42-24.78-24.78a3,3,0,0,1,0-5.73c14.81-4.36,20.42-10,24.78-24.78a3,3,0,0,1,5.73,0c4.36,14.8,10,20.42,24.78,24.78A3,3,0,0,1,568.83,483.79Z"/><path class="cls-14" d="M568.83,483.79c-14.8,4.36-20.42,10-24.78,24.78a3,3,0,0,1-5.73,0c-4.36-14.81-10-20.42-24.78-24.78a3,3,0,0,1,0-5.73c14.81-4.36,20.42-10,24.78-24.78a3,3,0,0,1,5.73,0c4.36,14.8,10,20.42,24.78,24.78A3,3,0,0,1,568.83,483.79Z"/><path class="cls-13" d="M327.64,541.21c-14.81,4.37-20.42,10-24.79,24.79a3,3,0,0,1-5.72,0c-4.37-14.81-10-20.42-24.79-24.79a3,3,0,0,1,0-5.72c14.81-4.37,20.42-10,24.79-24.79a3,3,0,0,1,5.72,0c4.37,14.81,10,20.42,24.79,24.79A3,3,0,0,1,327.64,541.21Z"/><path class="cls-14" d="M327.64,541.21c-14.81,4.37-20.42,10-24.79,24.79a3,3,0,0,1-5.72,0c-4.37-14.81-10-20.42-24.79-24.79a3,3,0,0,1,0-5.72c14.81-4.37,20.42-10,24.79-24.79a3,3,0,0,1,5.72,0c4.37,14.81,10,20.42,24.79,24.79A3,3,0,0,1,327.64,541.21Z"/><path class="cls-13" d="M107,576.51c-14.81,4.36-20.42,10-24.78,24.79a3,3,0,0,1-5.73,0c-4.36-14.81-10-20.43-24.78-24.79a3,3,0,0,1,0-5.72c14.8-4.37,20.42-10,24.78-24.79a3,3,0,0,1,5.73,0c4.36,14.81,10,20.42,24.78,24.79A3,3,0,0,1,107,576.51Z"/><path class="cls-14" d="M107,576.51c-14.81,4.36-20.42,10-24.78,24.79a3,3,0,0,1-5.73,0c-4.36-14.81-10-20.43-24.78-24.79a3,3,0,0,1,0-5.72c14.8-4.37,20.42-10,24.78-24.79a3,3,0,0,1,5.73,0c4.36,14.81,10,20.42,24.78,24.79A3,3,0,0,1,107,576.51Z"/><path class="cls-13" d="M521,116.42c-14.81,4.37-20.43,10-24.79,24.79a3,3,0,0,1-5.72,0c-4.37-14.81-10-20.42-24.79-24.79a3,3,0,0,1,0-5.72c14.81-4.37,20.42-10,24.79-24.79a3,3,0,0,1,5.72,0c4.36,14.81,10,20.42,24.79,24.79A3,3,0,0,1,521,116.42Z"/><path class="cls-14" d="M521,116.42c-14.81,4.37-20.43,10-24.79,24.79a3,3,0,0,1-5.72,0c-4.37-14.81-10-20.42-24.79-24.79a3,3,0,0,1,0-5.72c14.81-4.37,20.42-10,24.79-24.79a3,3,0,0,1,5.72,0c4.36,14.81,10,20.42,24.79,24.79A3,3,0,0,1,521,116.42Z"/><path class="cls-13" d="M838.65,220.74c-14.81,4.37-20.42,10-24.79,24.79a3,3,0,0,1-5.72,0c-4.37-14.81-10-20.42-24.79-24.79a3,3,0,0,1,0-5.72c14.81-4.37,20.42-10,24.79-24.79a3,3,0,0,1,5.72,0c4.37,14.81,10,20.42,24.79,24.79A3,3,0,0,1,838.65,220.74Z"/><path class="cls-14" d="M838.65,220.74c-14.81,4.37-20.42,10-24.79,24.79a3,3,0,0,1-5.72,0c-4.37-14.81-10-20.42-24.79-24.79a3,3,0,0,1,0-5.72c14.81-4.37,20.42-10,24.79-24.79a3,3,0,0,1,5.72,0c4.37,14.81,10,20.42,24.79,24.79A3,3,0,0,1,838.65,220.74Z"/><path class="cls-13" d="M712.13,129.55c-14.81,4.36-20.42,10-24.78,24.78a3,3,0,0,1-5.73,0c-4.36-14.81-10-20.42-24.79-24.78a3,3,0,0,1,0-5.73c14.81-4.36,20.43-10,24.79-24.79a3,3,0,0,1,5.73,0c4.36,14.81,10,20.43,24.78,24.79A3,3,0,0,1,712.13,129.55Z"/><path class="cls-14" d="M712.13,129.55c-14.81,4.36-20.42,10-24.78,24.78a3,3,0,0,1-5.73,0c-4.36-14.81-10-20.42-24.79-24.78a3,3,0,0,1,0-5.73c14.81-4.36,20.43-10,24.79-24.79a3,3,0,0,1,5.73,0c4.36,14.81,10,20.43,24.78,24.79A3,3,0,0,1,712.13,129.55Z"/><path class="cls-13" d="M823.4,514.87c-14.8,4.37-20.42,10-24.78,24.79a3,3,0,0,1-5.73,0c-4.36-14.81-10-20.42-24.78-24.79a3,3,0,0,1,0-5.72c14.81-4.37,20.42-10,24.78-24.79a3,3,0,0,1,5.73,0c4.36,14.81,10,20.42,24.78,24.79A3,3,0,0,1,823.4,514.87Z"/><path class="cls-14" d="M823.4,514.87c-14.8,4.37-20.42,10-24.78,24.79a3,3,0,0,1-5.73,0c-4.36-14.81-10-20.42-24.78-24.79a3,3,0,0,1,0-5.72c14.81-4.37,20.42-10,24.78-24.79a3,3,0,0,1,5.73,0c4.36,14.81,10,20.42,24.78,24.79A3,3,0,0,1,823.4,514.87Z"/><path class="cls-13" d="M268,87.05c-14.81,4.36-20.43,10-24.79,24.79a3,3,0,0,1-5.72,0c-4.37-14.81-10-20.43-24.79-24.79a3,3,0,0,1,0-5.72c14.81-4.37,20.42-10,24.79-24.79a3,3,0,0,1,5.72,0C247.6,71.35,253.22,77,268,81.33A3,3,0,0,1,268,87.05Z"/><path class="cls-14" d="M268,87.05c-14.81,4.36-20.43,10-24.79,24.79a3,3,0,0,1-5.72,0c-4.37-14.81-10-20.43-24.79-24.79a3,3,0,0,1,0-5.72c14.81-4.37,20.42-10,24.79-24.79a3,3,0,0,1,5.72,0C247.6,71.35,253.22,77,268,81.33A3,3,0,0,1,268,87.05Z"/><path class="cls-13" d="M399.63,72c-14.81,4.36-20.42,10-24.78,24.78a3,3,0,0,1-5.73,0C364.76,82,359.14,76.4,344.34,72a3,3,0,0,1,0-5.73c14.8-4.36,20.42-10,24.78-24.78a3,3,0,0,1,5.73,0c4.36,14.81,10,20.42,24.78,24.78A3,3,0,0,1,399.63,72Z"/><path class="cls-14" d="M399.63,72c-14.81,4.36-20.42,10-24.78,24.78a3,3,0,0,1-5.73,0C364.76,82,359.14,76.4,344.34,72a3,3,0,0,1,0-5.73c14.8-4.36,20.42-10,24.78-24.78a3,3,0,0,1,5.73,0c4.36,14.81,10,20.42,24.78,24.78A3,3,0,0,1,399.63,72Z"/><path class="cls-13" d="M121.26,161.07c-14.81,4.36-20.42,10-24.78,24.78a3,3,0,0,1-5.73,0C86.39,171,80.77,165.43,66,161.07a3,3,0,0,1,0-5.73c14.81-4.36,20.43-10,24.79-24.78a3,3,0,0,1,5.73,0c4.36,14.8,10,20.42,24.78,24.78A3,3,0,0,1,121.26,161.07Z"/><path class="cls-14" d="M121.26,161.07c-14.81,4.36-20.42,10-24.78,24.78a3,3,0,0,1-5.73,0C86.39,171,80.77,165.43,66,161.07a3,3,0,0,1,0-5.73c14.81-4.36,20.43-10,24.79-24.78a3,3,0,0,1,5.73,0c4.36,14.8,10,20.42,24.78,24.78A3,3,0,0,1,121.26,161.07Z"/><path class="cls-13" d="M226.28,256.42c-14.8,4.36-20.42,10-24.78,24.79a3,3,0,0,1-5.73,0c-4.36-14.81-10-20.43-24.78-24.79a3,3,0,0,1,0-5.72c14.81-4.37,20.42-10,24.78-24.79a3,3,0,0,1,5.73,0c4.36,14.81,10,20.42,24.78,24.79A3,3,0,0,1,226.28,256.42Z"/><path class="cls-14" d="M226.28,256.42c-14.8,4.36-20.42,10-24.78,24.79a3,3,0,0,1-5.73,0c-4.36-14.81-10-20.43-24.78-24.79a3,3,0,0,1,0-5.72c14.81-4.37,20.42-10,24.78-24.79a3,3,0,0,1,5.73,0c4.36,14.81,10,20.42,24.78,24.79A3,3,0,0,1,226.28,256.42Z"/><path class="cls-13" d="M644.39,421.27c-14.81,4.36-20.42,10-24.79,24.78a3,3,0,0,1-5.72,0c-4.37-14.8-10-20.42-24.79-24.78a3,3,0,0,1,0-5.73c14.81-4.36,20.42-10,24.79-24.78a3,3,0,0,1,5.72,0c4.37,14.81,10,20.42,24.79,24.78A3,3,0,0,1,644.39,421.27Z"/><path class="cls-14" d="M644.39,421.27c-14.81,4.36-20.42,10-24.79,24.78a3,3,0,0,1-5.72,0c-4.37-14.8-10-20.42-24.79-24.78a3,3,0,0,1,0-5.73c14.81-4.36,20.42-10,24.79-24.78a3,3,0,0,1,5.72,0c4.37,14.81,10,20.42,24.79,24.78A3,3,0,0,1,644.39,421.27Z"/><path class="cls-13" d="M425.65,455.23c-14.81,4.36-20.42,10-24.79,24.78a3,3,0,0,1-5.72,0c-4.37-14.81-10-20.42-24.79-24.78a3,3,0,0,1,0-5.73c14.81-4.36,20.42-10,24.79-24.78a3,3,0,0,1,5.72,0c4.37,14.8,10,20.42,24.79,24.78A3,3,0,0,1,425.65,455.23Z"/><path class="cls-14" d="M425.65,455.23c-14.81,4.36-20.42,10-24.79,24.78a3,3,0,0,1-5.72,0c-4.37-14.81-10-20.42-24.79-24.78a3,3,0,0,1,0-5.73c14.81-4.36,20.42-10,24.79-24.78a3,3,0,0,1,5.72,0c4.37,14.8,10,20.42,24.79,24.78A3,3,0,0,1,425.65,455.23Z"/><path class="cls-13" d="M297.83,166.42c-14.81,4.37-20.42,10-24.78,24.79a3,3,0,0,1-5.73,0c-4.36-14.81-10-20.42-24.78-24.79a3,3,0,0,1,0-5.72c14.8-4.36,20.42-10,24.78-24.79a3,3,0,0,1,5.73,0c4.36,14.81,10,20.43,24.78,24.79A3,3,0,0,1,297.83,166.42Z"/><path class="cls-14" d="M297.83,166.42c-14.81,4.37-20.42,10-24.78,24.79a3,3,0,0,1-5.73,0c-4.36-14.81-10-20.42-24.78-24.79a3,3,0,0,1,0-5.72c14.8-4.36,20.42-10,24.78-24.79a3,3,0,0,1,5.73,0c4.36,14.81,10,20.43,24.78,24.79A3,3,0,0,1,297.83,166.42Z"/><path class="cls-13" d="M847.43,588.76c-8.63,2.54-11.9,5.81-14.44,14.44a1.74,1.74,0,0,1-3.34,0c-2.54-8.63-5.81-11.9-14.43-14.44a1.73,1.73,0,0,1,0-3.33c8.62-2.54,11.89-5.81,14.43-14.44a1.74,1.74,0,0,1,3.34,0c2.54,8.63,5.81,11.9,14.44,14.44A1.73,1.73,0,0,1,847.43,588.76Z"/><path class="cls-14" d="M847.43,588.76c-8.63,2.54-11.9,5.81-14.44,14.44a1.74,1.74,0,0,1-3.34,0c-2.54-8.63-5.81-11.9-14.43-14.44a1.73,1.73,0,0,1,0-3.33c8.62-2.54,11.89-5.81,14.43-14.44a1.74,1.74,0,0,1,3.34,0c2.54,8.63,5.81,11.9,14.44,14.44A1.73,1.73,0,0,1,847.43,588.76Z"/><path class="cls-13" d="M526.59,582c-8.62,2.54-11.89,5.81-14.44,14.44a1.73,1.73,0,0,1-3.33,0c-2.54-8.63-5.81-11.9-14.44-14.44a1.74,1.74,0,0,1,0-3.34c8.63-2.54,11.9-5.81,14.44-14.43a1.73,1.73,0,0,1,3.33,0c2.55,8.62,5.82,11.89,14.44,14.43A1.74,1.74,0,0,1,526.59,582Z"/><path class="cls-14" d="M526.59,582c-8.62,2.54-11.89,5.81-14.44,14.44a1.73,1.73,0,0,1-3.33,0c-2.54-8.63-5.81-11.9-14.44-14.44a1.74,1.74,0,0,1,0-3.34c8.63-2.54,11.9-5.81,14.44-14.43a1.73,1.73,0,0,1,3.33,0c2.55,8.62,5.82,11.89,14.44,14.43A1.74,1.74,0,0,1,526.59,582Z"/><path class="cls-13" d="M608.59,287.26c-8.63,2.55-11.9,5.82-14.44,14.44a1.74,1.74,0,0,1-3.34,0c-2.54-8.62-5.81-11.89-14.43-14.44a1.73,1.73,0,0,1,0-3.33c8.62-2.54,11.89-5.81,14.43-14.44a1.74,1.74,0,0,1,3.34,0c2.54,8.63,5.81,11.9,14.44,14.44A1.73,1.73,0,0,1,608.59,287.26Z"/><path class="cls-14" d="M608.59,287.26c-8.63,2.55-11.9,5.82-14.44,14.44a1.74,1.74,0,0,1-3.34,0c-2.54-8.62-5.81-11.89-14.43-14.44a1.73,1.73,0,0,1,0-3.33c8.62-2.54,11.89-5.81,14.43-14.44a1.74,1.74,0,0,1,3.34,0c2.54,8.63,5.81,11.9,14.44,14.44A1.73,1.73,0,0,1,608.59,287.26Z"/><path class="cls-13" d="M830.07,306.74c-8.63,2.54-11.9,5.81-14.44,14.44a1.74,1.74,0,0,1-3.34,0c-2.54-8.63-5.81-11.9-14.44-14.44a1.74,1.74,0,0,1,0-3.34c8.63-2.54,11.9-5.81,14.44-14.43a1.74,1.74,0,0,1,3.34,0c2.54,8.62,5.81,11.89,14.44,14.43A1.74,1.74,0,0,1,830.07,306.74Z"/><path class="cls-14" d="M830.07,306.74c-8.63,2.54-11.9,5.81-14.44,14.44a1.74,1.74,0,0,1-3.34,0c-2.54-8.63-5.81-11.9-14.44-14.44a1.74,1.74,0,0,1,0-3.34c8.63-2.54,11.9-5.81,14.44-14.43a1.74,1.74,0,0,1,3.34,0c2.54,8.62,5.81,11.89,14.44,14.43A1.74,1.74,0,0,1,830.07,306.74Z"/><path class="cls-13" d="M116,385.77c-8.62,2.54-11.89,5.81-14.43,14.44a1.74,1.74,0,0,1-3.34,0c-2.54-8.63-5.81-11.9-14.44-14.44a1.74,1.74,0,0,1,0-3.34c8.63-2.54,11.9-5.81,14.44-14.43a1.74,1.74,0,0,1,3.34,0c2.54,8.62,5.81,11.89,14.43,14.43A1.74,1.74,0,0,1,116,385.77Z"/><path class="cls-14" d="M116,385.77c-8.62,2.54-11.89,5.81-14.43,14.44a1.74,1.74,0,0,1-3.34,0c-2.54-8.63-5.81-11.9-14.44-14.44a1.74,1.74,0,0,1,0-3.34c8.63-2.54,11.9-5.81,14.44-14.43a1.74,1.74,0,0,1,3.34,0c2.54,8.62,5.81,11.89,14.43,14.43A1.74,1.74,0,0,1,116,385.77Z"/><path class="cls-13" d="M803.63,108.65c-8.63,2.54-11.9,5.81-14.44,14.43a1.73,1.73,0,0,1-3.33,0c-2.55-8.62-5.82-11.89-14.44-14.43a1.74,1.74,0,0,1,0-3.34c8.62-2.54,11.89-5.81,14.44-14.44a1.73,1.73,0,0,1,3.33,0c2.54,8.63,5.81,11.9,14.44,14.44A1.74,1.74,0,0,1,803.63,108.65Z"/><path class="cls-14" d="M803.63,108.65c-8.63,2.54-11.9,5.81-14.44,14.43a1.73,1.73,0,0,1-3.33,0c-2.55-8.62-5.82-11.89-14.44-14.43a1.74,1.74,0,0,1,0-3.34c8.62-2.54,11.89-5.81,14.44-14.44a1.73,1.73,0,0,1,3.33,0c2.54,8.63,5.81,11.9,14.44,14.44A1.74,1.74,0,0,1,803.63,108.65Z"/><path class="cls-13" d="M839.55,388.74c-8.63,2.54-11.9,5.81-14.44,14.44a1.74,1.74,0,0,1-3.34,0c-2.54-8.63-5.81-11.9-14.43-14.44a1.74,1.74,0,0,1,0-3.34c8.62-2.54,11.89-5.81,14.43-14.43a1.74,1.74,0,0,1,3.34,0c2.54,8.62,5.81,11.89,14.44,14.43A1.74,1.74,0,0,1,839.55,388.74Z"/><path class="cls-14" d="M839.55,388.74c-8.63,2.54-11.9,5.81-14.44,14.44a1.74,1.74,0,0,1-3.34,0c-2.54-8.63-5.81-11.9-14.43-14.44a1.74,1.74,0,0,1,0-3.34c8.62-2.54,11.89-5.81,14.43-14.43a1.74,1.74,0,0,1,3.34,0c2.54,8.62,5.81,11.89,14.44,14.43A1.74,1.74,0,0,1,839.55,388.74Z"/><path class="cls-13" d="M694.26,239.31c-8.62,2.54-11.89,5.81-14.44,14.43a1.73,1.73,0,0,1-3.33,0c-2.54-8.62-5.81-11.89-14.44-14.43a1.74,1.74,0,0,1,0-3.34c8.63-2.54,11.9-5.81,14.44-14.44a1.73,1.73,0,0,1,3.33,0c2.55,8.63,5.82,11.9,14.44,14.44A1.74,1.74,0,0,1,694.26,239.31Z"/><path class="cls-14" d="M694.26,239.31c-8.62,2.54-11.89,5.81-14.44,14.43a1.73,1.73,0,0,1-3.33,0c-2.54-8.62-5.81-11.89-14.44-14.43a1.74,1.74,0,0,1,0-3.34c8.63-2.54,11.9-5.81,14.44-14.44a1.73,1.73,0,0,1,3.33,0c2.55,8.63,5.82,11.9,14.44,14.44A1.74,1.74,0,0,1,694.26,239.31Z"/><path class="cls-13" d="M693,499.73c-8.63,2.54-11.9,5.81-14.44,14.44a1.73,1.73,0,0,1-3.33,0c-2.54-8.63-5.81-11.9-14.44-14.44a1.74,1.74,0,0,1,0-3.34c8.63-2.54,11.9-5.81,14.44-14.43a1.73,1.73,0,0,1,3.33,0c2.54,8.62,5.81,11.89,14.44,14.43A1.74,1.74,0,0,1,693,499.73Z"/><path class="cls-14" d="M693,499.73c-8.63,2.54-11.9,5.81-14.44,14.44a1.73,1.73,0,0,1-3.33,0c-2.54-8.63-5.81-11.9-14.44-14.44a1.74,1.74,0,0,1,0-3.34c8.63-2.54,11.9-5.81,14.44-14.43a1.73,1.73,0,0,1,3.33,0c2.54,8.62,5.81,11.89,14.44,14.43A1.74,1.74,0,0,1,693,499.73Z"/><path class="cls-13" d="M731.7,439c-8.63,2.54-11.9,5.81-14.44,14.44a1.73,1.73,0,0,1-3.33,0c-2.55-8.63-5.82-11.9-14.44-14.44a1.74,1.74,0,0,1,0-3.34c8.62-2.54,11.89-5.81,14.44-14.43a1.73,1.73,0,0,1,3.33,0c2.54,8.62,5.81,11.89,14.44,14.43A1.74,1.74,0,0,1,731.7,439Z"/><path class="cls-14" d="M731.7,439c-8.63,2.54-11.9,5.81-14.44,14.44a1.73,1.73,0,0,1-3.33,0c-2.55-8.63-5.82-11.9-14.44-14.44a1.74,1.74,0,0,1,0-3.34c8.62-2.54,11.89-5.81,14.44-14.43a1.73,1.73,0,0,1,3.33,0c2.54,8.62,5.81,11.89,14.44,14.43A1.74,1.74,0,0,1,731.7,439Z"/><path class="cls-13" d="M452.52,558.71c-8.62,2.54-11.89,5.81-14.43,14.44a1.74,1.74,0,0,1-3.34,0c-2.54-8.63-5.81-11.9-14.44-14.44a1.73,1.73,0,0,1,0-3.33c8.63-2.55,11.9-5.82,14.44-14.44a1.74,1.74,0,0,1,3.34,0c2.54,8.62,5.81,11.89,14.43,14.44A1.73,1.73,0,0,1,452.52,558.71Z"/><path class="cls-14" d="M452.52,558.71c-8.62,2.54-11.89,5.81-14.43,14.44a1.74,1.74,0,0,1-3.34,0c-2.54-8.63-5.81-11.9-14.44-14.44a1.73,1.73,0,0,1,0-3.33c8.63-2.55,11.9-5.82,14.44-14.44a1.74,1.74,0,0,1,3.34,0c2.54,8.62,5.81,11.89,14.43,14.44A1.73,1.73,0,0,1,452.52,558.71Z"/><path class="cls-13" d="M362.24,578.7c-8.63,2.54-11.9,5.81-14.44,14.44a1.74,1.74,0,0,1-3.34,0c-2.54-8.63-5.81-11.9-14.43-14.44a1.74,1.74,0,0,1,0-3.34c8.62-2.54,11.89-5.81,14.43-14.43a1.74,1.74,0,0,1,3.34,0c2.54,8.62,5.81,11.89,14.44,14.43A1.74,1.74,0,0,1,362.24,578.7Z"/><path class="cls-14" d="M362.24,578.7c-8.63,2.54-11.9,5.81-14.44,14.44a1.74,1.74,0,0,1-3.34,0c-2.54-8.63-5.81-11.9-14.43-14.44a1.74,1.74,0,0,1,0-3.34c8.62-2.54,11.89-5.81,14.43-14.43a1.74,1.74,0,0,1,3.34,0c2.54,8.62,5.81,11.89,14.44,14.43A1.74,1.74,0,0,1,362.24,578.7Z"/><path class="cls-13" d="M162.25,590.92c-8.63,2.54-11.9,5.81-14.44,14.44a1.74,1.74,0,0,1-3.34,0c-2.54-8.63-5.81-11.9-14.43-14.44a1.74,1.74,0,0,1,0-3.34c8.62-2.54,11.89-5.81,14.43-14.43a1.74,1.74,0,0,1,3.34,0c2.54,8.62,5.81,11.89,14.44,14.43A1.74,1.74,0,0,1,162.25,590.92Z"/><path class="cls-14" d="M162.25,590.92c-8.63,2.54-11.9,5.81-14.44,14.44a1.74,1.74,0,0,1-3.34,0c-2.54-8.63-5.81-11.9-14.43-14.44a1.74,1.74,0,0,1,0-3.34c8.62-2.54,11.89-5.81,14.43-14.43a1.74,1.74,0,0,1,3.34,0c2.54,8.62,5.81,11.89,14.44,14.43A1.74,1.74,0,0,1,162.25,590.92Z"/><path class="cls-13" d="M72.93,269.24c-8.63,2.54-11.9,5.81-14.44,14.43a1.73,1.73,0,0,1-3.33,0c-2.55-8.62-5.82-11.89-14.44-14.43a1.74,1.74,0,0,1,0-3.34c8.62-2.54,11.89-5.81,14.44-14.44a1.73,1.73,0,0,1,3.33,0c2.54,8.63,5.81,11.9,14.44,14.44A1.74,1.74,0,0,1,72.93,269.24Z"/><path class="cls-14" d="M72.93,269.24c-8.63,2.54-11.9,5.81-14.44,14.43a1.73,1.73,0,0,1-3.33,0c-2.55-8.62-5.82-11.89-14.44-14.43a1.74,1.74,0,0,1,0-3.34c8.62-2.54,11.89-5.81,14.44-14.44a1.73,1.73,0,0,1,3.33,0c2.54,8.63,5.81,11.9,14.44,14.44A1.74,1.74,0,0,1,72.93,269.24Z"/><path class="cls-13" d="M608.59,139.11c-8.63,2.54-11.9,5.81-14.44,14.44a1.74,1.74,0,0,1-3.34,0c-2.54-8.63-5.81-11.9-14.43-14.44a1.74,1.74,0,0,1,0-3.34c8.62-2.54,11.89-5.81,14.43-14.43a1.74,1.74,0,0,1,3.34,0c2.54,8.62,5.81,11.89,14.44,14.43A1.74,1.74,0,0,1,608.59,139.11Z"/><path class="cls-14" d="M608.59,139.11c-8.63,2.54-11.9,5.81-14.44,14.44a1.74,1.74,0,0,1-3.34,0c-2.54-8.63-5.81-11.9-14.43-14.44a1.74,1.74,0,0,1,0-3.34c8.62-2.54,11.89-5.81,14.43-14.43a1.74,1.74,0,0,1,3.34,0c2.54,8.62,5.81,11.89,14.44,14.43A1.74,1.74,0,0,1,608.59,139.11Z"/><path class="cls-13" d="M546.46,51.85c-8.63,2.54-11.9,5.81-14.44,14.44a1.74,1.74,0,0,1-3.34,0c-2.54-8.63-5.81-11.9-14.44-14.44a1.73,1.73,0,0,1,0-3.33c8.63-2.55,11.9-5.82,14.44-14.44a1.74,1.74,0,0,1,3.34,0c2.54,8.62,5.81,11.89,14.44,14.44A1.73,1.73,0,0,1,546.46,51.85Z"/><path class="cls-14" d="M546.46,51.85c-8.63,2.54-11.9,5.81-14.44,14.44a1.74,1.74,0,0,1-3.34,0c-2.54-8.63-5.81-11.9-14.44-14.44a1.73,1.73,0,0,1,0-3.33c8.63-2.55,11.9-5.82,14.44-14.44a1.74,1.74,0,0,1,3.34,0c2.54,8.62,5.81,11.89,14.44,14.44A1.73,1.73,0,0,1,546.46,51.85Z"/><path class="cls-13" d="M744.14,90.36c-8.62,2.54-11.89,5.81-14.43,14.43a1.74,1.74,0,0,1-3.34,0c-2.54-8.62-5.81-11.89-14.44-14.43a1.74,1.74,0,0,1,0-3.34c8.63-2.54,11.9-5.81,14.44-14.44a1.74,1.74,0,0,1,3.34,0c2.54,8.63,5.81,11.9,14.43,14.44A1.74,1.74,0,0,1,744.14,90.36Z"/><path class="cls-14" d="M744.14,90.36c-8.62,2.54-11.89,5.81-14.43,14.43a1.74,1.74,0,0,1-3.34,0c-2.54-8.62-5.81-11.89-14.44-14.43a1.74,1.74,0,0,1,0-3.34c8.63-2.54,11.9-5.81,14.44-14.44a1.74,1.74,0,0,1,3.34,0c2.54,8.63,5.81,11.9,14.43,14.44A1.74,1.74,0,0,1,744.14,90.36Z"/><path class="cls-13" d="M763.89,561.71c-8.62,2.54-11.89,5.81-14.43,14.44a1.74,1.74,0,0,1-3.34,0c-2.54-8.63-5.81-11.9-14.44-14.44a1.74,1.74,0,0,1,0-3.34c8.63-2.54,11.9-5.81,14.44-14.43a1.74,1.74,0,0,1,3.34,0c2.54,8.62,5.81,11.89,14.43,14.43A1.74,1.74,0,0,1,763.89,561.71Z"/><path class="cls-14" d="M763.89,561.71c-8.62,2.54-11.89,5.81-14.43,14.44a1.74,1.74,0,0,1-3.34,0c-2.54-8.63-5.81-11.9-14.44-14.44a1.74,1.74,0,0,1,0-3.34c8.63-2.54,11.9-5.81,14.44-14.43a1.74,1.74,0,0,1,3.34,0c2.54,8.62,5.81,11.89,14.43,14.43A1.74,1.74,0,0,1,763.89,561.71Z"/><path class="cls-13" d="M76,60.81c-8.63,2.55-11.9,5.82-14.44,14.44a1.74,1.74,0,0,1-3.34,0c-2.54-8.62-5.81-11.89-14.43-14.44a1.73,1.73,0,0,1,0-3.33C52.39,54.94,55.66,51.67,58.2,43a1.74,1.74,0,0,1,3.34,0c2.54,8.63,5.81,11.9,14.44,14.44A1.73,1.73,0,0,1,76,60.81Z"/><path class="cls-14" d="M76,60.81c-8.63,2.55-11.9,5.82-14.44,14.44a1.74,1.74,0,0,1-3.34,0c-2.54-8.62-5.81-11.89-14.43-14.44a1.73,1.73,0,0,1,0-3.33C52.39,54.94,55.66,51.67,58.2,43a1.74,1.74,0,0,1,3.34,0c2.54,8.63,5.81,11.9,14.44,14.44A1.73,1.73,0,0,1,76,60.81Z"/><path class="cls-13" d="M343.44,114.27c-8.62,2.54-11.89,5.81-14.43,14.44a1.74,1.74,0,0,1-3.34,0c-2.54-8.63-5.81-11.9-14.44-14.44a1.74,1.74,0,0,1,0-3.34c8.63-2.54,11.9-5.81,14.44-14.43a1.74,1.74,0,0,1,3.34,0c2.54,8.62,5.81,11.89,14.43,14.43A1.74,1.74,0,0,1,343.44,114.27Z"/><path class="cls-14" d="M343.44,114.27c-8.62,2.54-11.89,5.81-14.43,14.44a1.74,1.74,0,0,1-3.34,0c-2.54-8.63-5.81-11.9-14.44-14.44a1.74,1.74,0,0,1,0-3.34c8.63-2.54,11.9-5.81,14.44-14.43a1.74,1.74,0,0,1,3.34,0c2.54,8.62,5.81,11.89,14.43,14.43A1.74,1.74,0,0,1,343.44,114.27Z"/><path class="cls-13" d="M144.89,90.36c-8.63,2.54-11.9,5.81-14.44,14.43a1.74,1.74,0,0,1-3.34,0c-2.54-8.62-5.81-11.89-14.44-14.43a1.74,1.74,0,0,1,0-3.34c8.63-2.54,11.9-5.81,14.44-14.44a1.74,1.74,0,0,1,3.34,0c2.54,8.63,5.81,11.9,14.44,14.44A1.74,1.74,0,0,1,144.89,90.36Z"/><path class="cls-14" d="M144.89,90.36c-8.63,2.54-11.9,5.81-14.44,14.43a1.74,1.74,0,0,1-3.34,0c-2.54-8.62-5.81-11.89-14.44-14.43a1.74,1.74,0,0,1,0-3.34c8.63-2.54,11.9-5.81,14.44-14.44a1.74,1.74,0,0,1,3.34,0c2.54,8.63,5.81,11.9,14.44,14.44A1.74,1.74,0,0,1,144.89,90.36Z"/><path class="cls-13" d="M207.88,177.23c-8.62,2.55-11.89,5.82-14.43,14.44a1.74,1.74,0,0,1-3.34,0c-2.54-8.62-5.81-11.89-14.44-14.44a1.73,1.73,0,0,1,0-3.33c8.63-2.54,11.9-5.81,14.44-14.44a1.74,1.74,0,0,1,3.34,0c2.54,8.63,5.81,11.9,14.43,14.44A1.73,1.73,0,0,1,207.88,177.23Z"/><path class="cls-14" d="M207.88,177.23c-8.62,2.55-11.89,5.82-14.43,14.44a1.74,1.74,0,0,1-3.34,0c-2.54-8.62-5.81-11.89-14.44-14.44a1.73,1.73,0,0,1,0-3.33c8.63-2.54,11.9-5.81,14.44-14.44a1.74,1.74,0,0,1,3.34,0c2.54,8.63,5.81,11.9,14.43,14.44A1.73,1.73,0,0,1,207.88,177.23Z"/><path class="cls-13" d="M459.86,486.74c-8.63,2.54-11.9,5.81-14.44,14.44a1.74,1.74,0,0,1-3.34,0c-2.54-8.63-5.81-11.9-14.43-14.44a1.74,1.74,0,0,1,0-3.34c8.62-2.54,11.89-5.81,14.43-14.44a1.74,1.74,0,0,1,3.34,0c2.54,8.63,5.81,11.9,14.44,14.44A1.74,1.74,0,0,1,459.86,486.74Z"/><path class="cls-14" d="M459.86,486.74c-8.63,2.54-11.9,5.81-14.44,14.44a1.74,1.74,0,0,1-3.34,0c-2.54-8.63-5.81-11.9-14.43-14.44a1.74,1.74,0,0,1,0-3.34c8.62-2.54,11.89-5.81,14.43-14.44a1.74,1.74,0,0,1,3.34,0c2.54,8.63,5.81,11.9,14.44,14.44A1.74,1.74,0,0,1,459.86,486.74Z"/><path class="cls-13" d="M561.56,198.36c-8.63,2.54-11.9,5.81-14.44,14.44a1.73,1.73,0,0,1-3.33,0c-2.55-8.63-5.82-11.9-14.44-14.44a1.73,1.73,0,0,1,0-3.33c8.62-2.55,11.89-5.82,14.44-14.44a1.73,1.73,0,0,1,3.33,0c2.54,8.62,5.81,11.89,14.44,14.44A1.73,1.73,0,0,1,561.56,198.36Z"/><path class="cls-14" d="M561.56,198.36c-8.63,2.54-11.9,5.81-14.44,14.44a1.73,1.73,0,0,1-3.33,0c-2.55-8.63-5.82-11.9-14.44-14.44a1.73,1.73,0,0,1,0-3.33c8.62-2.55,11.89-5.82,14.44-14.44a1.73,1.73,0,0,1,3.33,0c2.54,8.62,5.81,11.89,14.44,14.44A1.73,1.73,0,0,1,561.56,198.36Z"/><circle class="cls-1" cx="325.07" cy="418.41" r="8.96"/><circle class="cls-1" cx="254.53" cy="589.25" r="8.96"/><circle class="cls-1" cx="419.06" cy="112.6" r="8.96"/><circle class="cls-1" cx="795.76" cy="445.32" r="8.96"/><circle class="cls-1" cx="600.88" cy="512.01" r="8.96"/><circle class="cls-1" cx="152.58" cy="406.66" r="8.96"/><circle class="cls-1" cx="67.89" cy="325.94" r="8.96"/><circle class="cls-1" cx="738.83" cy="182.1" r="8.96"/><circle class="cls-1" cx="647.04" cy="322.12" r="8.96"/><circle class="cls-1" cx="490.59" cy="437.33" r="8.96"/><circle class="cls-1" cx="128.78" cy="548.08" r="8.96"/><circle class="cls-1" cx="626.19" cy="60.67" r="8.96"/><circle class="cls-1" cx="772.79" cy="255.42" r="8.96"/><circle class="cls-1" cx="385.68" cy="512.01" r="8.96"/><circle class="cls-1" cx="155.1" cy="51.71" r="8.96"/><circle class="cls-1" cx="108.85" cy="235.82" r="8.96"/><circle class="cls-1" cx="609.84" cy="217.94" r="8.96"/></svg>