<?xml version="1.0" encoding="utf-8"?>
<!-- Generator: Adobe Illustrator 26.0.0, SVG Export Plug-In . SVG Version: 6.00 Build 0)  -->
<svg version="1.1" id="Capa_1" xmlns:serif="http://www.serif.com/"
	 xmlns="http://www.w3.org/2000/svg" xmlns:xlink="http://www.w3.org/1999/xlink" x="0px" y="0px" viewBox="0 0 595.3 595.3"
	 style="enable-background:new 0 0 595.3 595.3;" xml:space="preserve">
<style type="text/css">
	.st0{fill-rule:evenodd;clip-rule:evenodd;}
</style>
<path class="st0" d="M522.5,0c40.1,0,72.7,32.6,72.7,72.7v449.8c0,40.1-32.6,72.7-72.7,72.7H72.7C32.6,595.3,0,562.7,0,522.5V72.7
	C0,32.6,32.6,0,72.7,0L522.5,0L522.5,0z M297.6,94.2c-55.3,0-62.2,0.2-83.9,1.2c-21.7,1-36.4,4.4-49.4,9.5
	c-13.4,5.2-24.7,12.2-36,23.5c-11.3,11.3-18.3,22.7-23.5,36c-5,12.9-8.5,27.7-9.5,49.4c-1,21.7-1.2,28.6-1.2,83.9s0.2,62.2,1.2,83.9
	c1,21.7,4.4,36.4,9.5,49.4c5.2,13.4,12.2,24.7,23.5,36s22.7,18.3,36,23.5c12.9,5,27.7,8.5,49.4,9.5c21.7,1,28.6,1.2,83.9,1.2
	s62.2-0.2,83.9-1.2c21.7-1,36.4-4.4,49.4-9.5c13.4-5.2,24.7-12.2,36-23.5c11.3-11.3,18.3-22.7,23.5-36c5-12.9,8.5-27.7,9.5-49.4
	c1-21.7,1.2-28.6,1.2-83.9s-0.2-62.2-1.2-83.9c-1-21.7-4.4-36.4-9.5-49.4c-5.2-13.4-12.2-24.7-23.5-36c-11.3-11.3-22.7-18.3-36-23.5
	c-12.9-5-27.7-8.5-49.4-9.5C359.8,94.4,352.9,94.2,297.6,94.2z M297.6,130.8c54.3,0,60.8,0.2,82.2,1.2c19.8,0.9,30.6,4.2,37.8,7
	c9.5,3.7,16.3,8.1,23.4,15.2c7.1,7.1,11.5,13.9,15.2,23.4c2.8,7.2,6.1,17.9,7,37.8c1,21.5,1.2,27.9,1.2,82.2s-0.2,60.8-1.2,82.2
	c-0.9,19.8-4.2,30.6-7,37.8c-3.7,9.5-8.1,16.3-15.2,23.4c-7.1,7.1-13.9,11.5-23.4,15.2c-7.2,2.8-17.9,6.1-37.8,7
	c-21.5,1-27.9,1.2-82.2,1.2s-60.8-0.2-82.2-1.2c-19.8-0.9-30.6-4.2-37.8-7c-9.5-3.7-16.3-8.1-23.4-15.2
	c-7.1-7.1-11.5-13.9-15.2-23.4c-2.8-7.2-6.1-17.9-7-37.8c-1-21.5-1.2-27.9-1.2-82.2s0.2-60.8,1.2-82.2c0.9-19.8,4.2-30.6,7-37.8
	c3.7-9.5,8.1-16.3,15.2-23.4c7.1-7.1,13.9-11.5,23.4-15.2c7.2-2.8,17.9-6.1,37.8-7C236.9,131,243.3,130.8,297.6,130.8L297.6,130.8z
	 M297.6,193.2c-57.7,0-104.5,46.8-104.5,104.5s46.8,104.5,104.5,104.5s104.5-46.8,104.5-104.5S355.3,193.2,297.6,193.2L297.6,193.2z
	 M297.6,365.5c-37.5,0-67.8-30.4-67.8-67.8s30.4-67.8,67.8-67.8s67.8,30.4,67.8,67.8S335.1,365.5,297.6,365.5z M430.7,189
	c0,13.5-10.9,24.4-24.4,24.4c-13.5,0-24.4-10.9-24.4-24.4c0-13.5,10.9-24.4,24.4-24.4C419.7,164.6,430.7,175.5,430.7,189L430.7,189z
	"/>
</svg>
