<svg id="Capa_1" data-name="Capa 1" xmlns="http://www.w3.org/2000/svg" viewBox="0 0 63.13 88.36"><defs><style>.cls-1{fill:#010101;}</style></defs><path class="cls-1" d="M44.44,2.23A36.12,36.12,0,0,0,32.31,0L0,0V70.92A11.48,11.48,0,0,0,11.49,82.41h0a11.54,11.54,0,0,0,10.9-7.9A22.16,22.16,0,0,1,39.93,59.45a27.9,27.9,0,0,0,9.84-3.38C69.81,44.41,66.7,9.91,44.44,2.23ZM31.9,41.36a11.51,11.51,0,1,1,11.1-11A11.51,11.51,0,0,1,31.9,41.36Z"/><path class="cls-1" d="M48.07,64.82H51.3A11.77,11.77,0,0,1,63.07,76.59v0A11.77,11.77,0,0,1,51.3,88.36H24.53a0,0,0,0,1,0,0v0A23.54,23.54,0,0,1,48.07,64.82Z"/></svg>