<svg id="Capa_1" data-name="Capa 1" xmlns="http://www.w3.org/2000/svg" viewBox="0 0 200.43 152.62"><defs><style>.cls-1{fill:#010101;}</style></defs><path class="cls-1" d="M127.28,37.12c-11.41-19.09-42.41-18.9-53.9,0-12.17,21,2.64,45.53,27,45.28,16.76.35,31.52-12.54,31.09-29.79A28.71,28.71,0,0,0,127.28,37.12Zm-27,27a11.51,11.51,0,1,1,11.5-11.51A11.5,11.5,0,0,1,100.25,64.15Z"/><rect class="cls-1" x="161.37" y="94.23" width="21.1" height="58.39"/><path class="cls-1" d="M44.44,2.23A36.12,36.12,0,0,0,32.31,0L0,0V70.87A11.54,11.54,0,0,0,11.54,82.41h0a11.69,11.69,0,0,0,11-7.88c2.74-7.61,9.25-13.87,17.44-15.08a27.9,27.9,0,0,0,9.84-3.38C69.81,44.41,66.7,9.91,44.44,2.23ZM31.9,41.36a11.51,11.51,0,1,1,11.1-11A11.51,11.51,0,0,1,31.9,41.36Z"/><path class="cls-1" d="M181.8,2.23A36.21,36.21,0,0,0,169.67,0L137.35,0V70.92a11.49,11.49,0,0,0,11.49,11.49h0a11.55,11.55,0,0,0,10.91-7.9,22.14,22.14,0,0,1,17.53-15.06,28,28,0,0,0,9.85-3.38C207.17,44.41,204.05,9.91,181.8,2.23ZM169.25,41.36a11.51,11.51,0,1,1,11.1-11A11.51,11.51,0,0,1,169.25,41.36Z"/><path class="cls-1" d="M48,64.82A10.49,10.49,0,0,0,37.52,75.31V125.7a8,8,0,0,1-8.13,8,8.09,8.09,0,0,1-8.35-8V94.27H.05V127a23.63,23.63,0,0,0,3.73,13.13c5.59,8.51,15.39,12.53,26.05,12.47H58.62V64.82Z"/><path class="cls-1" d="M109.7,103.8a9.44,9.44,0,0,1-9.46,8H91.66v40.82H70.42V104.37a10.88,10.88,0,0,1,10.35-11,10.61,10.61,0,0,1,8.65,4.1,2.17,2.17,0,0,0,3.52-.06,9.22,9.22,0,0,1,16.76,6.4Z"/><path class="cls-1" d="M155.38,103.8a9.43,9.43,0,0,1-9.46,8h-8.59v40.82H116.08V104.4a10.91,10.91,0,0,1,10.38-11,10.59,10.59,0,0,1,8.7,4.19,2.09,2.09,0,0,0,3.41-.06,9.21,9.21,0,0,1,16.81,6.31Z"/><path class="cls-1" d="M185.42,64.82h4.34a10.66,10.66,0,0,1,10.66,10.66V77.7a10.66,10.66,0,0,1-10.66,10.66H161.88a0,0,0,0,1,0,0v0a23.54,23.54,0,0,1,23.54-23.54Z"/></svg>