<?xml version="1.0" encoding="utf-8"?>
<!-- Generator: Adobe Illustrator 26.0.0, SVG Export Plug-In . SVG Version: 6.00 Build 0)  -->
<svg version="1.1" id="Capa_1" xmlns:serif="http://www.serif.com/"
	 xmlns="http://www.w3.org/2000/svg" xmlns:xlink="http://www.w3.org/1999/xlink" x="0px" y="0px" viewBox="0 0 595.3 595.3"
	 style="enable-background:new 0 0 595.3 595.3;" xml:space="preserve">
<style type="text/css">
	.st0{fill-rule:evenodd;clip-rule:evenodd;}
</style>
<path class="st0" d="M522.5,0c40.1,0,72.7,32.6,72.7,72.7v449.8c0,40.1-32.6,72.7-72.7,72.7H72.7C32.6,595.3,0,562.7,0,522.5V72.7
	C0,32.6,32.6,0,72.7,0L522.5,0L522.5,0z M227.3,493.6c158,0,244.5-131,244.5-244.5c0-3.7,0-7.5-0.2-11
	c16.7-12.1,31.4-27.3,42.9-44.5c-15.3,6.8-31.9,11.4-49.4,13.5c17.8-10.7,31.4-27.4,37.8-47.6c-16.6,9.8-34.9,16.9-54.5,20.8
	c-15.7-16.7-38-27.1-62.7-27.1c-47.4,0-85.9,38.5-85.9,85.9c0,6.8,0.7,13.4,2.3,19.6c-71.5-3.6-134.7-37.8-177.1-89.8
	c-7.3,12.7-11.6,27.4-11.6,43.1c0,29.8,15.1,56.1,38.3,71.5c-14.1-0.4-27.3-4.3-38.8-10.7v1.1c0,41.7,29.6,76.3,69,84.3
	c-7.1,2-14.8,3-22.6,3c-5.5,0-10.9-0.5-16.2-1.6c10.9,34.2,42.6,59,80.2,59.7c-29.4,23-66.5,36.7-106.7,36.7
	c-6.9,0-13.7-0.4-20.5-1.2C133.6,479.3,178.9,493.6,227.3,493.6L227.3,493.6z"/>
</svg>
